<mxfile host="app.diagrams.net" agent="Mozilla/5.0 (Windows NT 10.0; Win64; x64; rv:139.0) Gecko/20100101 Firefox/139.0" version="26.2.14" pages="2">
  <diagram name="Page-1" id="H1_9m6kCNkGwdkYWgFRr">
    <mxGraphModel dx="719" dy="389" grid="1" gridSize="10" guides="1" tooltips="1" connect="1" arrows="1" fold="1" page="1" pageScale="1" pageWidth="1654" pageHeight="1169" math="0" shadow="0">
      <root>
        <mxCell id="0" />
        <mxCell id="1" parent="0" />
        <mxCell id="P1UD6UZuFPKrnC7a3uCG-5" value="" style="shape=image;imageAspect=0;aspect=fixed;verticalLabelPosition=bottom;verticalAlign=top;image=data:image/jpeg,/9j/4AAQSkZJRgABAQEAYABgAAD/2wBDAAMCAgMCAgMDAwMEAwMEBQgFBQQEBQoHBwYIDAoMDAsKCwsNDhIQDQ4RDgsLEBYQERMUFRUVDA8XGBYUGBIUFRT/2wBDAQMEBAUEBQkFBQkUDQsNFBQUFBQUFBQUFBQUFBQUFBQUFBQUFBQUFBQUFBQUFBQUFBQUFBQUFBQUFBQUFBQUFBT/wAARCADGAJsDASIAAhEBAxEB/8QAHwAAAQUBAQEBAQEAAAAAAAAAAAECAwQFBgcICQoL/8QAtRAAAgEDAwIEAwUFBAQAAAF9AQIDAAQRBRIhMUEGE1FhByJxFDKBkaEII0KxwRVS0fAkM2JyggkKFhcYGRolJicoKSo0NTY3ODk6Q0RFRkdISUpTVFVWV1hZWmNkZWZnaGlqc3R1dnd4eXqDhIWGh4iJipKTlJWWl5iZmqKjpKWmp6ipqrKztLW2t7i5usLDxMXGx8jJytLT1NXW19jZ2uHi4+Tl5ufo6erx8vP09fb3+Pn6/8QAHwEAAwEBAQEBAQEBAQAAAAAAAAECAwQFBgcICQoL/8QAtREAAgECBAQDBAcFBAQAAQJ3AAECAxEEBSExBhJBUQdhcRMiMoEIFEKRobHBCSMzUvAVYnLRChYkNOEl8RcYGRomJygpKjU2Nzg5OkNERUZHSElKU1RVVldYWVpjZGVmZ2hpanN0dXZ3eHl6goOEhYaHiImKkpOUlZaXmJmaoqOkpaanqKmqsrO0tba3uLm6wsPExcbHyMnK0tPU1dbX2Nna4uPk5ebn6Onq8vP09fb3+Pn6/9oADAMBAAIRAxEAPwD9IvF+tXlnqlnbWkrxq0TSSFQD1OF7j0NeY/Enxf4gtFto7bUrm1ZwQrRyeXu6HnB56V1HjnxSmn+KLqHYrmNEj5fbgbd2Oh/v1zV54stL6Mrd2dvcxgE7JWEgz/ulcfjnvSYHlQ+LXiJNXTSJdc1I6gq71toriSSWQbAx+VW3HAOeOnerPhvxx48k8V6e11rF6tmysxtJb1vNb5eMofbB5FZXir4FeBvFPiabXpkksbu6JeRra309zGNuAitLZswHHQPwMgda9L0KTw/4Ztba20vTLOyFrEsKyptEjBVCDcwjBLYHJ70kB6DeeI7q2tp5G1GdfLRnDM+3opPUnFZ/hbxnrfiDw3peovdhPtdpFOcc4LLk8hsd65bWvE63Oi30FuwWd4JBEyNkK204JGFz9MineHvE6aPoWn2JXzWt7eOEtuChtqBcgHOAcdMmmwMLxj468YQ67eiHVbiKOEMRHFcFRgFgOA3f+lcpZfFXxbr9mtzpmo6vdQFhGtzHLMYQQAfmcEhevfrXouuahpXiayu7a90mG5+0QvE8uV81FIPzKwBIYZyD615F4B/Z78EfDq7spdPfUbq3s5/tKWlzextbSMQAwaNLcA5I+vAz2pID074N+KvFOpvqEGsazc3Tq5cvFdGUICq7RnPHQ/rXceJfGOr6Pc6StpeSZurv7M4nYdDG7AjJ9UA/Gufg8SafbJstrezs4+nkW5Cov4bP5+lZuv6/HdS6VOjogtb1JmI+fcArjafu4+91wfwqgO31vxB4ht9Lnkivz8oUZjRi33h0+YjvXi+rfFDxHo6RS3mu3qRXEnlIwvGwHwSB94EE46YNemR+OImTYbaEDAyBMTz7/J7e9cp410rQvGUFqJoP7MuLacXEd5YNGkobaVxuaJhjDE8jtSYHI6x458e3UMsVrqmqaZ5a7nmu7iSHC/MCy7jz0969u8KeKtTu/DlpNPf3MjSJvWYPu3qScNmvNvC+haVobTy3c934hmlKssutyQStERnPllLZMZJ569B079eviq0hjEfkxhAAAizMOM9ABH059KSA39L8daxc6/reltdFvsLQFGIViVkjDdiO4Yc+lYfxF8T+I7KO1aDU57cFCSUkMQPXrhjmsKHV2tPGmo6iSjwXdtbIsZJQqUMuSSRls7h1A6d+29L4tgvN0clpbSx7cFZHLZPbACHPf86bA84T4m+JpL2508alq91eQqsjLayyvtVhx0OeopfDPj7xsviTT5b7WbyPT5cokE90wdycbSUbnpmpvEngnw9r3iCXVYIW0i4njSO4bTRbr5oU9GaS1dsjJ4JHt7b/AISTQvDOnWtrZ2dtI9qMLdzOPPYkk8ssIHG7aMdAAOlJAesx+IroXA8y5mwuDtJIBHrnvmu8AMwDqxCsARzXh0fiu33hikWFBGPNZ+P++BXrvhrV11HQbGddpDRBSdxOSOD29RVAeH/FR9njrVsHHzx/+iY646SdhG+D26nP8/6d6634tNt8e6p9Yv8A0THXzb+058R9Q8AeA0GkO1tqWpTG1S7jzvgTYWdlI6NgAA9Rk45qAPVbjxFpttqcNndajaR3bxl47aS5VHfGM5UnOeRxmrwu2OAxwdoOM9j0r8gdVkuWurmO4ubi7PmmSTznLPKTg72J6k+v49Sa+yP2LPi9f69ean4K1G8kvobe2/tCwmmJaSJA6o8RY84+ddo6DBoA+tXuScfMfzpEn4xnpwKrTFUWUAk4DEE+mMikikwiHq20HnoeB1/OgC2bqRAPLxuJHXH8/wD6xrLsPE+m3Ooy2NtqNjPqCZMltFdI8qY77Mgj9Pavl/8Aa7+ImqNfxeD7O5uLDS/sS3V88JZTcliwEe4fwgLyOh3CvjKz1C5t3t0triWG4t8GKWHKSIQTt2kcgj1HPYcmgD9gvtTZB8wshAx82T78jj+vrSPdELwx5IB56jI4rxr9mH4nX/xN+GMV1q8oudXsbhrO4uQMC4wqskmOmSrAE9ypPcV62HBIB55X/wBCFAF1rk5A3HAVcDPtUF5qEdpavPPcx20KffkndVQA9izcCoAzNsK89iO57V8A/tQ+OfEHiPxS+ofariPSLa4eDT7EuDF5SsQZSo/jLL1POCAKAPvvRvE2meIEMuk6rY6pHE212tZVnVfY7WJ/QVofamy4ZdjZ7cZXtxX5UfD3xpq3hrXbbXdN1mWx1e2nEm7cSpBILBl6MvGCD1Ffpp4N8SxeLvCmj61FGYFv7OG5MB5MRdFYoT3IzigDf+0s00fzHv3qR5j5pw2DjoeR9TVBZP8AST7Rqfxy1UfFmvHw34Y1TVUiM0lpbvME7OQPun2PSgDT1nxJp2hIJ9S1K10/IGHup1hDY7jcRx+IqxZa3aaxbx3FhdQXtsR8txayrJG30IJH61+WXxV8R61P42vb/VNVnu72+RZpWkjH7osWHlxn+GMcEAdMmuu/Zy+Jeq/D34gaOLa9M2n6ncxWd9aK7FHjdtu8L0DpkuD1wGHc0AfpXHKcqM8EjNfRPwzAbwPphwDxJ2/6aNXzioYO4ZNm3K4znBAH/wCv8a+jfhxx4J0vHHyN/wChtQB458XwP+E81P8A7Zf+ikrw34x+BY/HvhC5sWXdIvzpgAsCCCGUZBJBAOBycV7p8Yf+R71D6R/+ikrgpG2kEdc5oA/Mzxn8GfGnh3UJYP7NOpRxvs82yPmgc87lB3L2GMjkHnnn6X/Y6+CuqeDkv/FGtwPaXN5CLWKGaPy3CbgxO08gfKuCcH27n6WaKOSRZDGhkQYVyoyB7GpECqTwOevHWgCK8ci0nbGDscZ79D/9aiZhtKrwflwB9KdqJBsZuP4GP/jpppUeYTgZAGD+FAHjH7Q3ws1PxrpMs+iCKS9kjMcsc2NjJxgE5DJgjIkH3cbTw5r4ru/hV4x+0panw9dO8riKMQp5yyEnBxsznOCewBKjpX6dpwTjjvTYoEhdmiRY2YksUGCT05oA89/Z++GM3wv+HVrp94NupXUjXd0uSdjtgbCcAZAAyB0JPtXp0ceYZjjkBcH0+YVFGgTgDAPpVlDi3uv+uaH/AMjRj+poApH5U6Z5xkjOOPqPWvlf9oz4K67f6h/auj2EF3bZYSRzTmP7QDzwwO1ipycDb97nPGPqoNuUUjKOeByMH3FAH5s+D/gZ4w8b+JbLTItCmsYGfdJM8LeSig8tLIOFUdyCTzxX6OeHfD8fhvQtL0e3Ym0sraK2hLDDFUVV3HHGSQc+9XUQBEVQAqfdA6D6VMvysCeuMZ/CgCmJA15JGBykSZ/76eo9Ts49T066s5ThJomU5BIAxjOO/JAx6E88UIN2s3OOP9HiPH+/LVwZXuRQB8K/HD4D65p/ia71DS9Bt57K5KtHawXDb4cAbgqvuLKWy27cScngYGV/Zr/Z+1/VfHtnqusaVPpmj6XMt5L5sRjDFXDKiZ+8WI5PZd3rX3R5av8AeUHnPI71LGBuHA65oAuxKsc3lqCAqjOTnk9v89iK+kfAAC+D9LAGB5Z6f7xr5vhHU98V9MeBlA8I6VgAfuB2oA8S+MAz461D6R/+i0rgmTJOea674oahLqXjfVZIIyyJL5GFHOUVVOfyrkBHf7grWzjd0JQf/WpOWpqqU0tIjVTBNSJHnNQBLwSOhhkyuOij/wCvUix3fP7mX/vkf4UOS6gqVTpFkOsqV0e/IOCLeUgjsdhqwItwBxVTV7W8utKvIlWVGkhdBhR3BHp71YEl0+dqLgEDkD0H/wBep5o9x+xqvo/uFaAjoMULERSM1yPvpk9tvFIj3cqti2f5emCtO6/mF7Cr/LL7iwqdKnjh3RyDHBCg/wDfxKy0l1AyENbsgHTcRzV3zp44JPNVlLBAhUgciRG5/AH86OZL7Q1Qq/yv7hDCFLcY5P8AOozESaPOm2ZLJyT1K5zn6jioWnlz1X/gJX/E0e0X8w/YVl9l/cy2kRWpfLzn6Gqayyt3/wDHhTjNKg3E8ZH8Q9aPaL+YPY1n9l/cyvFET4ivAOALSA4/7aT1fMBxWUfPtdYuLlpkRZYIox5jr1VpDxn/AHxVsX0j/wDLeBv+2iD+tHtF/MH1et/K/uZYWMg1MqAHpWfJfmH53mhAAJ4kQ54z6+1OS6kndjHKjAHGAynHJHb6UnNP7QLD1ntF/czYgXLn/PevpbwSSvhLSRkf8e6dfpXy/bm4Z+GHTJK89x6f1r6Q8AapFdeDdKcyHIh8s/L3UlT29quLX8xnKlOPxRf3H5ufFzTlj/aI8WXOoNJBpseo3VxKjrJtlxu2ICvJ3NtGB6+1VdNk8PRFR/bFm8UmpJNG8l1cIy27SWreS4AygUNOhJ5wpNfXXign/hJdWbJ3fbJ+e/8ArGrHeRxjDMMDHXt6VwRwrTbTPrZ58pQhB0vhilt2Phnx680viKRdJuprq18mF/8ARJZpURjEgYbm5zuVifcmue8rWf8AqIfk/wDhX3pcX89n50satKVjjJALf3mHYf5xUQ1u+8hZfssrS+Yw8sF8DCE+nqelctTLZTfM5nvUONKVCKgsOn6pHw3p0WsF5Ay3zqUxsbfyfpjmqknhfW/Mk/4k99J85O4Wj+3fBzX3oNSnuLS6aVXtXUfLvLcjapyMjjkn8qsXtw4IKygk4yc1j/Zb/wCfn4mr44Td1ho/18j4CHhrXY840bUBx2tpP/iaVfDuvy7t2j6i2CMZtpDj5V/2a++rq5dJoRwQSucf7wqKS6MMd86MTtkx1+7+7T/69H9lN/bK/wBeWv8AmGj/AF8j4MHhrXU6aRfx/wDbrJz/AOO1ag8Na1Nbzo+k38jEALm1kz3z/DX3nez7IJZkcgc8A9KlmkLSIwJAMhGAf9lqaylr/l4H+vcumGj/AF8j4BXwL4hdFH/CNaq23uNNlH67TmgeBNfj6+G9WXP/AFDZT/7JX38/zDnnk9aYwGOn+cVX9lP+cX+vc/8AoGifA6+Cdf7eHtWH/cMl/wDiKH8Fa+FO7w/qv46dIP5qK+97bmCInkmNCT68VMo60f2U/wCcT47n/wBA0T4MfwN4gkgjKeG9VkPOSNOk9vRaq/8ACCeJcn/imNW/8F83/wARX3/G7HI3HA6DNKzbaP7Kf85H+vk/+geJ8BJ4C8SsrA+GtVUYPB0+Xng/7FTv4A8SZ58M6q/J6adLxyf9ivu68bNtIR1AODVr7rNjjk9KTyp/zj/17m9Hh4nwXb+BfESEhvDOrIp43f2fKMcH/ZFfpF+zrp09r8GPDUclg6uI5ch7dgRmaQ8giuXjJDZ7hTg+le//AA0XHgnTscDMvGP+mr114fBKhJqUrnh5pxNLM1CLoKLj2Z4Z4pbHiTVv+vyf/wBGtWMzjFaXixyPEmrc/wDL5P8A+jWrFEnzj/PevSPi7so6jZ/2hDcRCVoMxJ+8Vc4++apR24aUyLqOHR/NVUQrlgSBn681dkuVimuCzmMhI8MBnHL0lzfDGQ75AGSRnH+eaBF2+t4xZzjYr/uy24jqT1qtqSW6yxRybYlbkHdsBI6DP41Il2sto+/c48phnGKjvbgGSMopJEi8t25osgC9Nq1zFC0phJGWIl2kHt0qGZ4dl1B5iRBpeWLj5vlGPT6VLfXLFkLRbyXTJxz95f8AE1HNdE2142JCwduSTxhExRZAWbs24tRai4iZJMKZN/P14Pt39auJF5QgXcXAZcknPODmqOp3DG1ZBExyvB9MelXiwyigMGDknPrg0AOB+QZ9T/OgsMdKhV8KuTn5RSq4MijtQA6E/wCjwY4/dL/Kn5PrVWxctZW5zz5af+girA6GgCRGxmnFwevNViTnrRk+poAkuWX7O3A6irAcce45rPuHxA3Pdf51b3ZCfT+poAtxnLr+P8q+hfheAfA2mkjJ/e/+jXr52hPzD6ivov4YjHgbTPpJ/wCjGosgPAvFUBfxFqjDAxdSbifQucn614DJ+1f8PQcNeSIVwT88I54z1kBxX0L40TZ4o1eNflb7RJtI9d3FflxMPKaFPSNd317/ANK4cTX+r6n1OSZRDM+aLesT6vl/bC+HFrdvIt5IyyRIP3QWXGC/UKzY6+1XND/az8D+I9b03StPS8e4v7qKzjfywFDyOEUkEjHLV8jNFG0OfLXIGB8o4qX4dwW7fE7wgZAoI1yxxx/03T/61cdPMHOSiz6HFcJww1GVRy2Pvv4k+KR4I8GX+rECRojFCqnHLSzRxep/vVq+KtYs/Cmi6lq2oJiz0+Np5GUc4XJrzr9qC4Efwdutpx/xM9LUEen26Diuj+OtxHJ8LPF6SHCtZuCf+BjP869eUuSHMfntGlGtWjG+jaX4nCN+1z4BjZB/aG0MQQJGi6g9Pv56gdqy3/bO+HVrdXUMtzcMDIArJGWV/kXPQY6nH4V8oqscFxcImGiEh2jsMGnTKjQ4CKAO2K8Z5k72P07/AFNjJfH1Ptn4fftLeE/iZ4rtPD2lfaZLu6jldHlXCgIhY/yrtPE/iptC8ReDdNkVSNb1CaAufvAJayyE5+qCvjP9lVY4vjvoxCKCYLrkD/pi1fUfxTeN/if8IAzbcatqG1ezEadPgfSvUo1nVjdnwWaYJYDEOnF3Oi+IvxB0n4W6DBq2tBzay3ItUWPG4syO4P0Gw15qv7XPgZncMLlVztLAjIPGSPyPSp/2uXjf4faUjNlF1mIDP/XCfNfHFs8fln+PLHOea48TjZUZJW0Po8n4epZjh/aylZn1VaftseBYbKBXtNSMqxqjKltIADjHXy8dvWvRPhL8cNF+MlxrdvotvPC2lJE0vn4yfM37cY5/gPWvhG9VZIiwUcAk8dTX0D+wvcqviPx2AACbbTicdz/pNOhjHWmolZtw7Ty7DyrKbbVvzPo+HxQs/wAS7zwyFH+j6LDqQb13Tujf+gisX4n/ABl0T4UXOnW+ro5a8Rnj2Y/hxnP5isqyugP2pdVA4H/CE2xx9b+bP8h+VeZftkGGfWdBDkKwspyv/fSV2V6jo03NdD5nKsJHHYuGHk7J3/I6e8/bB8GRWkshtrmXYu4Ii5JI6DABqpH+234HbA+xajkkgK0EseOM43NFjt696+VrZ1EagAblP3u/ao9TQPAWwMjJz74xXkLMpN2aP0CXB9JJyVRux+h/wv8AiHp/xS8Kxa7pcMkFq00kAWU5bKHBye/5CvrD4eBl8G6aAxA2vwD/ALbV8HfsdyIfg4oCgY1K66D/AHf/AK9ffXgAqPCGm8AfI3/oRr3KbvFSPzDE0lSrSpx6Hyr8WviNpvh7x1q0U95DDPHeSFo5mIJw5xj9a/Pu30qQwRtcRYnZQXyc845Ar6T/AGrbX/i8mtMi70md3J2k8+bIp/lXi0mmtIzOSwYnJJxz+tfMY7EOc+Vn7bwzlFHD4WOJg9Zo5o6ZxjaMfSl0axGneLvDWoLENtlq1ncyEKOEWdCxP/Acmtp7WRTgAN+BFN+yyf3B0x07V50aji00fWVsJHEU3Sm7Jnr/AMc/iVZeLPhzc6bYMtzdvfafMsCnJKx3sLueemFU1rfFb4oab4k8Ca/pdvcCSW5hMaYOc5cH8eMV4V9klIxsGPTFKLF2OXXBAwDivTnmVSUeWx8ZR4NwtKSfO7p3Oci0gKmSo3EnIxT/AOyxtI2jn2rda0Kn60n2U15alq3I+9jRtqyx8HJx4L+LGjaxOClnHBdRyyAAhS0RC5/GvXfHHxN0/X/Gnw71OO8VotIvry5lZV+6HtHiB/OQ/lXjggPfnHIz2pxiLDByRjGDXoU8wnRjZI+Sx/CmHx9d1Zux6V8e/Hdp488LaVY2NwZQmorO5HGFEEoz/wB9Mv514lDooSFR5ahh1wPYH+tdCLbC7VGFHGBwKGtm9a5auIdZ3Z6uX5TDLafs6TOfbRvMAQgAMQtek/s6eIrX4b6/4skuphbx31vZCJtucshuAy/hvX865UWpzn0p62jHocYOfxpUq7oyU0bZhlkMxoulUdkz1+L4l2UXx01LxKs4/s+fw3b6ck2MjzFupJGGPo9cZ8efEcPxC8S6PcW0nnQWtpKrHHBLPnGPoBXKJZui7UXIznHofWpEs5WDYXDdgO9dNXHzqwcGeHguFsNgq8a9ObbRgR6OMAhFGQOgpx0RZfkYDDDZjHr3rohaqIwp2Bx94CYDFKtmWxsBcjqTgj8DXA52PrPYfZuevfs8eM9O8D+DBo17drbMbyaQFs8htuD+lfo18LtRtdU+H+iXkEokhng8xXUnBBYmvyVsLeaO4j+XknAr9TvgHaywfBfwYhHI0yEn8VzX02AxEql12PxvijJaOA5a8HrNs+Iv2mLLz/iZrEjDdG0twgTqeJ5OQO5yRXyzc+G9GMfms2q7uu/7OC3J9c5B6V+hPjvSVm8aa1KIg7tfzlQByf3j/wCJ/M14fqH7OXg241C5u5LJjdTzPPIxnbhmO7p0HXtUV8A6s+fY0yzi7+z8LHCunex5BYacpsLZolJjMSAHaVJ+UdR6881P/Z7f3W/I1694S+FWheDJdQTSQAtz5byhiW2sN3A/OtwaJAsmWZfQDBpLLbK/Mb/66TbuqS+88F/s9v7rfkaQ2DYPynjkkg4AHUnPYCvf5fC3+iSYXLDBDKDnlhUWqeBoNSsbqyuYt1rcxtBKvRtrcHB7cGl/Z3mP/XSb3pfifNd7eWcFxgXdsygDcvnDOcc/hnP5VJaafcX0KzWkMt1E2cSQqWU8kHkA9ww/CvS3/ZL8FygAafOG29PNPAOT/wCzGu48J/DOx8K6DbaNp8UgsbTf5ayEsw3yNI3J92I/Cj+zYvqH+u9Ze6qSfzZ4INC1E/8ALhdf9+m/+JpG0PUF62Fx/wACjYf+y19Kjwgmf9Ufyptx4RVXtsRkZkwcDr8jUnlkP5hf671v+fK+9nzNdWk9hAz3Nu1tF3llyqj8SBWeurWAJJvoNi43ZuEOAT+dfSviT4Xab4t0VtM1OAyWspyyY5bBNcTcfspeCbw+UdMlVNoXaZDxyOf51Kyyn3H/AK7V/wDn0vvZ5umkXron+hyhfUI3JwM896tx6PLEv723ePPTcrc19AWHhA/YoEkiUMEU4TnGRVlPCAMijy2x6Y9xVf2bBbMT42rPekvvZ89ppkhB2Iw9flJprWzQHErhN/A3YUk/jX0G3g8G7kUxsQI1IGO+W/wFc74t+B2h+ODa/wBrWH2g2u/yu2N23d/6CPyp/wBnX6iXGc2/4X4nzHfaPol5eXCPYarczNIwYxRK4Zg+ABz05/IGum0nREXQbSO3h1GCCMMFTy5ElzuOd2z3HGe3SvXNK/Zo8K6Fq9lqVpp3k3NnKssbM2QDuAPH416dp/hUB9zDzOcblB5Hb+dZxy3e7OifHMnZKkr+rPmzS/Djyzw/6PrJ6ksTc9Bzx71+qHwbVoPhV4TiRZgsemwIA4+bhAOcjOa+dtMsGgVQm5AB0z/n3r6l8Dr/AMUhpH/Xsn8q78Ng1Qvc+UzriGpnEYQqQS5fM+d/FSlvEurYJH+mznj/AK6NWKYOMY6dPb/OB+VdR4wtVsfE+rRzyJFKbuZirtt4Lsy/+OsD+NYLzWy9bq3X/elH+Ir0nsfJGclry2ABk5OO5pTYq3VFP1FW4rizy26+th/21X/4qpfPsf8An/tv+/q//FVIGZfQubSTLMeB396UwuCwycHqM1a1C70+LT7qRr+22xxmQ5lXoCCf4vTNI11p+7Lahbrk9pFPv6+9AFcROedx496BDLJ1djjpk1YN3pwA26nbD1y6/wCNOjvNOGc6jbt/uyKP/ZqAKwtnB6n86S4t2zByfvn/ANAarpu9PJG2/t/xlX/4qornUdNhltlfULcbnOMSA/wN9aLICFYXVcBiBk9DSGF9wfcd+4DdnnrVn7dpgZv+JlBgk4G8U1r/AExiqjUoASR0ceo9qAK1tAxt4uT90d/apfs7Ajk/nU0N9piRqh1GDIA/jHoPapPt2mEZ/tKDgj+Mf4UAU/s7faG5OfKT+bUogfJ5P51M2q6Y13KEv4DtCjrn19KX+07Af8v0A/HH86LAQG1ZmHJq0kUiqoLsQOgJ6VH/AGnYE/8AH/B2/iHqParMd9ZSYAvYXPP/AC0A7miwEkKOW+8fpn3FfS3gePHhDSMn/l3T+VfOdqsckqsJUZR12Nnj3/KvpHwzbNa+HdMidirJbRggHvtFAHz38YQW+I2r/wDbH/0THXET2gmXlQceorv/AIrR+Z491Y453xjP/bJK4DXtYsvDGj3Wp6nOLext13SP1OeSABnLE4xgfmKaEzMk07LHAHHtUDWOw8j9K8wv/wBp+0sru2uR4Yul0G5lW3hvZ7kI1w7ZOI1EbKWGD8pcY4yRkV6r4M8V6L8Q9Cj1fRZxcWxby3Rl2vC+ASjqehG4cgkHsTVEmbrNjv0LVOAR9kl7f7Jq2bLYWwMZY9K19Wsc6TqA2jH2aXPH+wakksmEjchRnqVyO9AGAbUt15x601LTk8VJ4k8SWHhuSwglikubrUJFhtYIBliWOA7nooye/X8K8v0X9pnQriQvqGkXdlpZlMUeoRyCVCQwUhvkGOSMkE9e3cA9Nay3EcVDcWH+kW3A6t2/2DXTWkcN7aw3EDxXEMqK6TRYKSAjIZT3BzTbixBnt/lHVu3+waAMVrE+naoTZMGBHUV0b2ZG5RGZGK8AHBryr4kfG3S/AUksC2cupXEIAd8+XGCSBgFVbLfUY6ZIoA7UWTde9OWzbJGeMVzPgv4s2viPWI9H1DSLjSL5/kilJE1vKcA434Uq3PAIIPYnFejx2O0gHa2F6jk9e/bP0oA5m1ssXFySOcr2/wBkVa+ye36VqJZfv58DuvQf7Aoulg0+0nu7yUW9pCheWZvuxqASWPsMeooAzFsyWGK1rKwGQSoJ9xXivib9pODQhZ3Vn4TutR0i6uEt7e9e7EIuWYttCKEY4+U8+3JGa9O+FnxU0L4oWdy9gXs9QtGBurG4wJY+cBsAkFSRjj05AzQB31rGYhj1Uivqe2AFtDx/yzX+Qr5gXBdjuBOOVA4Xnt+v5V9TWij7LDwPuD+VAHzt8UFz481f/ron/otK8L+PN5qWleEo57SCG4sJJfs98ko6IwyCDjCnK4DE4yyjBzXvnxLQN441c458xP8A0WlcVquk2mr2M9pewJcwSrteKT7pXIPP0IB/AVBTPgvxHeSyeJbMaZqg1Vba3+12lzq9wzC08zMjQtuG53Rt6qEUrsaPoOV9h/YztHu4/FOoRS7LCZYYpoASfKmVn2hSc84POGbgqPr2Go/st6BqOrE22r6hbWozM0KBGYdMBZCPlHpkE8cYxXq3g7wLo3gHRY9G0SyFpaRHzG3Hc8sh6yOx5LHA5wOlBJdvbYNaXAwCGhkyMcY2txSGHDck4DbiB1OO361cuY8W0/H/ACyf/wBBNNVMHd/EDwe/SgaPmL476trngr4hxajpl/a6bdXEKLaXN2JSiL5e07fL53Ix3jg4POM181a1Pq3hW6u9PfVZJNpimku9Kvy9veF9rK7HCnbglfmAIbqBX6H+N/hzovxB04Wmr2fnCLc0U0LeXNET12N2yOuQVyBntXmukfskeFG1SK41O/vtatYVMcNhcGNUcA5xMVAZ+SeAAvsaBs3P2bra8b4J+GJb2PyXmhklhh3ZKQNK5hHrjYRjP8O0dq9HltvmjOOct/6A1XoLNLeCOGKNY441CBUxtGBjA9gMU2aMgx/Vv/QGoEimIirxk7QPVh1PPH5ZP4GviLx/aXMOqX3hqC9i+SVXvLW+EhDSlcGN2AyuXIBI+XKgnOBj7pZcBQTiMj5gBknngVwnj34SaB46Wa7u7d7TUXQgTwIm5gq8feU9MDpg9MUDZ8IWV7rdz4o8O3GjLJb61NPF9li2DZGS4jTAVQCcKGLdwTX6RC2CyoNys23BwMeuP8a4LwB+zz4a8A60mrlrjV9bBcwXd/s3Q5AyY1CgZxxk/MOeea9LeHBDgqNwGFU5wPf360EmWLYCaXgDp/IVkeNF1OLwnqo0izF/fvAyR2+8Iz7htIU4PzbWbGBnOACCc10wj5J70SQeZGy7QQ/yElSQARg0Afn18WLS18vQtb0/XLnUZdRlvBf2Ooks+kzx7dxjXJCxMHyq9Q6SA8jNdf8AskXWoX3xhn2j7RBBYTC4u4ohGpjOFGSOpZwjDPZDX0H8RP2d9B+IWoyXZ1C70u+upf8ASJLPZ85C4LtkYLYAGWyPXtXW/DX4W+HvhjpctpoVo8TzkNPdXDbp5yFwCx6Y64C/KMnApoaOvWJUdscnb+m7I/nX1Fa/8e0P+4P5V8wLH9899p5r6fthiCMf7IqijjPEPwttfEGsXF+128DzYLKqhuQAO/0rMb4JWhII1JwQc8wj+hFFFADJPgnaswZ9TdmPfyQf5tTj8F7XAzqcpx0/cj/GiigAHwVsmBEmoSuhGCBGBx+dO/4UnZfwX8qr2zGCaKKAI2+CVp31GTn/AKYqf605fgpalSv9pS7c5x5Q/wAaKKAFf4KwOc/2pJn1aEH+oqCT4HRu6kauQBnINtnP/j/HeiigCxH8GbMH5dRlDrwWEQ/xpkvwQtJVKtqMjK3UGJSDRRQA9Pgpaoc/2jJnjnyloHwUswf+P+Q+v7tRRRQAp+C+mjpez578Ckb4K2TjC38wHcMinNFFAB/wpW3GManKAP8ApmKd/wAKYtyADqcxx0zGtFFAAPgzag4/tKXkdBEvNegmEjgO2B74oooA/9k=;points=[[0.14,0,0,0,0],[0.14,1,0,0,0],[0.38,0,0,0,0],[0.38,1,0,0,0],[0.62,0,0,0,0],[0.62,1,0,0,0],[0.86,0,0,0,0],[0.86,1,0,0,0]];" parent="1" vertex="1">
          <mxGeometry x="39" y="80" width="125.25" height="160" as="geometry" />
        </mxCell>
        <mxCell id="mnefD7ne6x8SKBLMxtcZ-1" value="" style="shape=image;imageAspect=0;aspect=fixed;verticalLabelPosition=bottom;verticalAlign=top;image=data:image/jpeg,/9j/4AAQSkZJRgABAQEA8ADwAAD/2wBDAAIBAQIBAQICAgICAgICAwUDAwMDAwYEBAMFBwYHBwcGBwcICQsJCAgKCAcHCg0KCgsMDAwMBwkODw0MDgsMDAz/2wBDAQICAgMDAwYDAwYMCAcIDAwMDAwMDAwMDAwMDAwMDAwMDAwMDAwMDAwMDAwMDAwMDAwMDAwMDAwMDAwMDAwMDAz/wAARCAM4AUUDASIAAhEBAxEB/8QAHwAAAQUBAQEBAQEAAAAAAAAAAAECAwQFBgcICQoL/8QAtRAAAgEDAwIEAwUFBAQAAAF9AQIDAAQRBRIhMUEGE1FhByJxFDKBkaEII0KxwRVS0fAkM2JyggkKFhcYGRolJicoKSo0NTY3ODk6Q0RFRkdISUpTVFVWV1hZWmNkZWZnaGlqc3R1dnd4eXqDhIWGh4iJipKTlJWWl5iZmqKjpKWmp6ipqrKztLW2t7i5usLDxMXGx8jJytLT1NXW19jZ2uHi4+Tl5ufo6erx8vP09fb3+Pn6/8QAHwEAAwEBAQEBAQEBAQAAAAAAAAECAwQFBgcICQoL/8QAtREAAgECBAQDBAcFBAQAAQJ3AAECAxEEBSExBhJBUQdhcRMiMoEIFEKRobHBCSMzUvAVYnLRChYkNOEl8RcYGRomJygpKjU2Nzg5OkNERUZHSElKU1RVVldYWVpjZGVmZ2hpanN0dXZ3eHl6goOEhYaHiImKkpOUlZaXmJmaoqOkpaanqKmqsrO0tba3uLm6wsPExcbHyMnK0tPU1dbX2Nna4uPk5ebn6Onq8vP09fb3+Pn6/9oADAMBAAIRAxEAPwD9+th9qNh9q49/iUFcjnik/wCFlj0ak2B2Ow+1Jt9xXHH4mAdjTT8SlP8AA351LdwOivfE9np9y0Us0auvUFhVO7+IGnWuMyo2fRhXmXirTx4j1uW7EgQSdieaz28JA9ZlNID1Wb4o6bDGWL8D3FV2+MOlKpO48e9eYN4OjkXBkX86jbwHEwI85eaAPRT8ftGBI+fj3qtdftI6HaEgrKcehrzd/hfbMfvrz71Xu/g/bSxn94hJ96APQpf2r/D0PVJ/8/hVSb9sjwxADuWcAe//ANavM3+Attfbt0qLj171kah+y/baoxi+0RIG7nNAHq837cXhKE8ib8x/hUTft4eDEHzPIv1cV4hqf7F9vMSBeQkH61zurf8ABP1dRX5dRt1+uaAPo9f2+fA38V2qf70oFT2X7d/gC8mCf2vZxk/3rhRXyVqf/BMaDVYyralbh2H3stXIa/8A8Edm1BGMGvWsbHoctQB+m3g3xvpvjzTBd6ZdwXUJx80bhhz9K2Nh9q+bf2P/AIeS/szeAm0ae5W+ZmUh0JwMAjv9a9f/AOFqJ/zyf86AOz2H2o2H2ri2+K8aHBjcY96B8WI2GRG5/GgDtNh9qNh9q4v/AIWtH/zzf86P+FrR/wDPN/zoA7TYfajYfauMT4prJ92Jz+NH/C1E/wCeT/nQB0mt6/a+H7cyXEqIB2LYzWGvxd0lukqn/gQrh/inL/wnttGEfytmSQe9cjB8Llt4EP2hCWGTz0oA9ll+L+kxJu8zP0YVA3xs0hQTubj3FeSxfDlA/wA0ykfU1KfhxAf+Wi/rQB6afj7o4PR/zqpP+0poUEpQrKSPQ1523wxt2B/eLz71Tn+D1rK5bzEyaAPSLn9qXw/a43LNz71Rl/bD8NQkgpPx7/8A1q851H4EWt4AfNQYFY8n7NlrdTlfNjAPfmgD1aT9tbwrEcMJh9SKjk/bh8IRfeaQf8CFeM6p+x9b3jZW6hXP1rE1X9hmLUB8t/Av50Ae/wD/AA3T4KUZa5C/WQCn237dHgW4JzqVvHj+9Oor5a1T/gm7HqRJGp24J+tc3qf/AASjGpTAf2zbLn3agD9AfAPxs8O/ElwulalZ3Ln+FJlY/pXW7l/vLXxT+x/+yG37LPi77c9/HfLhgAhPf619Qp8Rodv+rYfjQB2owf4l/OlwPVfzrjE+I8IP3G/Onf8ACyIf+ebfnQB17Nt9DRXHP8UI4jhYmP40UAcNIczP9aSo2YmZ/rS5PqalsB9P3iocn1NM800JgWd4pHOar+aaVXLVQEyfeFPqAy7aRr4RrzzQBJT0+6KzpNcjVsOyp+NOi8RWiDHnIT9RQBck6Go6ry6vbXTArMox2BFO+1bwNuCPWgCbOaeGBqBGJFPRyTQBLkZxRULOQaRrjb1NAFhThqeDg+lUzeBunWmmZu5OKAPLf2hfjzqXgDUFtNC0eTXbxiFaKNsFQe/WvPrf9o34qCEf8W31L/vsf411HjvVo7T40t5gWOMBPnJxnk16za61BPArJcoynodwoA8C/wCGjfip/wBE31P/AL7H+NR3P7T/AMTdKVZbj4caisO4KxLjAz+NfQ39qRf894/++xXO/FDVU/4RGbbOhO4fxigDe+E3i+48X6Cl1c2rWkrr80ZOSpxW+zjJrhvgjqLw+ETIw3OZWXk9q6/zyxoAmdxupN4qu0p3UnmmgCzvFKDmoBISKcGJXigCyCDTH+8aqzSD+KQpVWbXVtiV3KQv8RPJoA06VPvCslPFVoGAaZAT71aj1WCUBllU/jQBfpNwqCPUA44x9aXzM0ATbxRvFRbz7Ubz7UASO420wMDTXc7aYHoAmoqPzPc0eZ7mgCzB0NFRQycHqaKAK4kJmfjvTt59qZnc7H1paLALvNJRRRYAo2uQdmM0oGawfiD4/tPh7ocl3dSoiqueoFAF3WvEVtolo73k8USqMn5wK+Xv2if+Ck3hv4N+dELyGSVQRgENXxn/AMFIP+Cry+GLm80vR7tzM24BkOQPyr8rvil+0frvxG8QTXc99M/m54LnHP40Afp38c/+C4U9hNIulSwsMnGRivC9Q/4LbeLLq6ZxOig9gxxX543kl1qEhaWV3yc/eNOs9KMxGSw+poIuz9K/hz/wXA8S2F6wuJY2Rj/EScV9W/s8f8Ft9K1/W7S11W5iRZB8x2jrxX4X3WlTWe3Y5Jf0NS2V7e6XcLIktwjr0IYjFFguf1cfCH9pjQvixpcc9hewSmTBwrqT/OvSYLoXEilCCh71/MX+xr/wUM8a/s9+L7fF+z2e4KyyZfgnnqfSv3a/YI/bn0X9pPwVbNHdR/b9nzqzgHoO1A0z6inAEh29Kq3Sl+nanwS71wSCfUd6JVyD70FEEUeW61LtKrgc0kcZVs0smdvy9aAPL/jf+znbfF2ZZJbu8s3Vt263cqx/I1x1h+w2sVqqjxJr4AHe6b/Gvf7e5ZG+fBFLNIkrkjIz70AeC/8ADEC/9DLr3/gU3/xVRzfsLW17tS48Sa+YlYMcXTHOP+BV738vq3501gCeCfzoAzfBXhiHwVokVhA7yxxgDc5yTgYzW0rYPFVlGBT432nmgCYnJopnnCnbx5TPkfL270APQliBWd4s8b6d4Rs3knnRCi7juYCuf+Knxhsfhbokt3cSqjKhIyRxxX5Df8FFv+Cr96+vXmm6LehAQUJzx6GgD7j/AGmv+CnXh/4ZrOkN5C0iZC4IPNfEXxb/AOC4N1b+cbOVTJzwAcV+aXxJ+P8ArHjq7eS7vJ5WdieHP+NcPPqV1euSZM59TmizA/QmL/gtT4s1S4d1lQBTxyR/Suq8Cf8ABcHxPpOsxG8eI2469T/SvzNSS6hXjihr+8fA54OelFgP34/Zq/4LN6J4/SC31CZIpWYZJTH86+4vhR8cdD+K+mrPp95DLuXIAcZ/nX8p/h34kXulSK0U0kTqMfKxWvrL9iD/AIKT+I/gn4htLea+ke1DAEOS3H40Af0ZA5FFeGfsf/tcab+0R4Qt7pLmJriSMFlDDIJ9q9viuRIWGCAO/rQA9/ummU5nyKbQAUVHRQBYgOAaKZB0NFADVIx1FLkeoqJMAY9KWgCTI9aKjp+8UAQazdixsDIWACjJ9q/MH/grv+3y3gLR7rRbC7K3BVowVboea++f2oPifD4E+GOqTbxE8MDNuzj0r+bf/god8c7j4rfFy9xctKkczA85oKijxn4k/Ei9+IGs3dzcyu7yyEkk9c1m+HvDFzq13HBFE8k0hAVQOTmm6Foz6ldxxgEmRgB71+l37Av7AlhodjZ+JfFVokxZQ0UUy9jyp/lQZzdj50/Z3/4Jk+M/jAscklvLYQyDIeWI4r6f0n/gjhpHhHQ4P7avrG4uh94gEbjX6KeA7fTdM8J28WnW0cCqdo2emK8Z/aD+FuueMtdvZrXxDNpsNv8AOqBcgfpTSJTPkW4/4JmeDdR1CKxthbQXTnasjHIB/KvPvjh/wSN8TeCrB7/TnXU7cDcEgiJOK+jfCHw71jT/AIi2b3fiSWcxyfKjD/W/pX234CnnvtNtLKaFmjaMAk/xVYH88Xjn4San4E1OS31KymtJUJGHXB616h+w/wDta69+zB8V7G4gu5IbKWVI5Ez/AA5571+rf7dX/BO3w98cPDFxdaXHBa6rGvmbkTLNgZI/Svx++OfwM1L4Y+I5tPvIJI7q0ctuYYOM8fypNXKif0ofsq/Hyw+Pvws07XbOVW+1R72GckdK9SdwQDnrX5Hf8EB/2rjsbwbqc+fJiSKIO3ckf4V+tdzbiCdtsm9SeB6VBQ9pQp9aabgYqFyQai3HNAE+R6ijI9RUdFAEmR6ijI9RUdFAEmR6ijI9RUdFAEmR6iqus6nFpGmS3EjhRGM4z1qavHv2zPinF8LPhXfX0pChIi2ScY60Afnj/wAFgf2/T4biudG0692zuCMK34V+O3jTxTe+O/Ecs1xMZzIxcn8c16T+2F8YJPi18Y9SvLmUypHNIiKTnjNYnwL+DV/8RvEcFjp9rJcyzuA2wfcUnr+FNIlyscxovha71eZYrS2kuJH4CoMkmvffhB/wTm8cfEmztrlNMu7VZxnLxZxX6BfsT/8ABOXwf8N7WC7137LqWpbQwikTDIevpX2Df6D/AMIz4KvotFtPs0scX7lY+oOa0SM3Ox+S8v8AwSI8RWFiHutUtY5CM7GiINcp4k/4JoeLNJsJZ7WNr+OM4PlRGvuD4xa342Fywlmu45DnbmvU/wBjbVNQuNEmj1l3uN0uCj9+tPlJVQ/Fb4ifA7V/AGotFf2M9synq64rnYIJrSVWVWyp4YV/QL8e/wBhHwf8evDE7SaTa217Kh2y7ckHHBr8l/2uf2JdV/Zt8W3VlKsk1irfupyuA3XioauaqR1H/BNH9uXU/gf8UNMsrq6kTT5ZlWUE4G0V/QJ8KPiNZfFDwJp2qWLrJHcQhyQc9a/lQi87Q78zIDviOfev3L/4IU/tWR/Fb4bNoN1cAz2BSBFZskcf/XqCz9BycUm4etJeYju9oORim0AFFFFAD4n2g0VBMxUjBooAA4WVh6GneaKhdszP9aKAHySZbikknO2o2bBpC2aAPkv/AIKqeNT4c+BWslflY20nI/Cv5wPF2tnX/G15dScqsmWPXNf0Rf8ABYbT5bn4BaqY1J/0eSv53I7HyvE0yuPmL9D0NUkVFn05/wAE3v2eIvi58YbG4vLZZdNhJ37hlc8EV+r2j6Xb2lrHbqFS0tEEagDj5Rgfyr4I/wCCe2n+IdE8KXCaDa2j3Vw4dWkOMcetfS3gv/ha97bzRNZ6SY2dsnzRnP5VaRzVXrY+jvh1r6XUgijPyKeBTfHk4SXWd6rgR14Toet/EzwJqwi+yaQZCc4aUd/wrT8QeJvGdlrcd1rNtAF1ZvLkWEl1UdewpJApKxymla9HB8S7V9ok8uTow4FfW3g3xTdX/wBiYWsUNuI8GRTyK+RvHOs2/h7XIZNscMrElC4Cg/Umuqj+JvxJ0CwgeyXQJbSVA0ZNwpOO1WkPmR9sWGmWmtWZO8biuD71+dP/AAWE/ZqtbKxTxFp8CiaaXZKFXHygDn9a9y+FHi/4z+LLJ5re10Jl3EcTjp+VYH7Tfgz4heMPhvqKeI7LTBa2sLygo+45x9KUi4s+Av8Agl34tbwV+2R4ZiQlIr3UY4yOm7g1/RJeXP2nbIqhA3IxX87n7GmlfZP21fAR8vGdXTG0cfdav6JL2X/QrdcAFV5rKzK5kVy2OppMjNNJyaj3mjlYcyJ6KYJCRS7z7UhjqKbvPtRvPtQA6im7zTqAELAGvhP/AILV+MpdB+A2oRJMyGS3OMH3NfdEj4Y1+df/AAXhtLi5+Clw8IOEtmzj6tTSA/C2bTW1zxfK5G8ySkc9yTX6l/8ABND9ley8K/DZPE+oQql/MWiRCvQHODn8a/OX4JeFx4k8dQQSBiwnDEAejCv1S0f45weCdE0vR7W0ukSGGJmAgYAnaM9q2jsc9WR7r4ZI0bUwkmPM6bj1r2bw4ftOiMz/ADEr1NfImo/tHQzXy3QtbxduD/x7tj+Veh+Dv2z7FfDro9vdeaEwMW7Y/lWiVjNyMD9pG7W01iTPUE49q2P2S9Xha2laXBAkPPpXD/EfxHB8QtNu9Sui8aIcoEGDg+orI+GfxN/4VVchGRpreU+ZlF3kflTexKep97eC9Xs7m3H74vEeFJHf0rzT9sn9mDT/AI2fDXUVmtIzdwwu8b7csTjivMPDP7c2mw6nHCtrc/Jg7RbHGfyru9f/AG7LW90xlbT7vay4I+yNz+lZNG0X3PxQ+NPwml+HPjLUdMnQiS1fa+RzX13/AMEHPHY8L/tBwaapCreXOSvrgCvP/wBvbSrfxH8RbvXreJ4k1iUuVZNm38K2/wDgjJpfl/tiaKBu2Cc5x+FZOJspI/eu/gBCTBuWXOKrBjkVf1TRxDb28quxURjIzVIIMilZjuS0UUUhkc/UUUT9RRQBBJ/rn+tJTpiPNY8c03I9RQAUUZHrRQB85f8ABSTwRL4v+A2qwwxmR2t3AwM+lfzh/EXwvN4Z+KV3ZSxskkM20gjFf1UfEPRoPE3hq+sriHzEkiKgetfgL/wVO/ZnuvhB8bLvV4rGRbW9naQELwo/yKtNAev/APBMW/bVtGk8sDZAwRuO+K+wfg3bza9Bdwxq3mpO7cjsCa/Pj/glr8YovCvjkaLeSCCHUXMm9jhRgY/rX6S/CDVLbwz4q3IV2T5YYP3s9/1rWNrHLW1PNvi14Q8Q6z8SopbFJI4FZAQynnHWun8YfFzTfA9hY6Pe2NxNqEreWz+XkA47cV7l4oaKRxcRKrvgHgV5L408GQ+O9auryWDbcWP70E9SelFhK54L+2d8Bdd+JmjaDNos0NrHcxMXDHa55PvXL/D/APZT8e6Tb20VzdSzRbRghmIA/Ovf9X8Yy69r+iaS8TxNBmNXb7o619UfDPw5BceEUSWNTIAOcfeoGeKfswfC7WvAWjql9KWLMTwT3rf/AGuZG074PavvGxJbWRQSOp217ZBocFtIq/KpBzivln/gqX8ZYNJ8DWvhyzkDXs82wxqfmIYCpkXA+N/+CXfwZl8f/tR6TemIyR6JeJOWAzjqP61+3XiACK7IBBUHjHavjn/gj/8AsvJ8MPhvc+KNSs2jvNXtl2BhhlYEGvrq8YSPvLhmbkj0qSyJjk01RgUuc0UAKpwadvHvUe4etLkeorM0H7x70bx70zI9RRkeooAfvFP3iocj1p5IweaAIpeXzXx7/wAFb/hzP4t/Z41jyojK/kHbhc4619hOM4rjvjZ4Ii8eeCLuwmjEizJjaR1rRAfze/s0ab/wj37QkKXCgLHOVZSO+4V+tV7aWmoeItKUWtuimzgOWiXn5R7V+d37TXwauf2ff2mmna3e3t5bppQxGABvFfoN4F1eH4keB9G122dXWJIYGYc8qqgj9K0jaxyVUdD8ZoF0XwlJ9h06JpVQkYgB7fSsf9m2GDVfB95c69Zx28YiBJeIJ3HTIr3nw1pGneJvDoNwqM+zBBrE1XwRp/ifR73RGjWOFk8tT0Aq+YSijxTxV4b0nW/BXiGbRI5JVhfBAO7Jx2xXyl8NfHXj3S/FF/b/ANnObJZ3VTLalj145NfZvhzSofgxout2kaEIZPl/28DqKu/s96R/wsHVpjcwK8HnE7NoyeetDkVZHkn7PEnia/8AGkcmp6UghbGSbTAxn6V9j3GhWs+khl0+3b5e0C+n0rrbf4c2lso8oQoqxjjb7VYj8rw1oDzTpiJASWPQVm2VGPc/Kj/gphb21l4nAEIhKyN8oXb69q6v/ghL8Hp/EHxdufELJ+50+7AyR6gV51/wUE8Y/wDC1f2gtT060PnrHclbdV5359K/Tn/glX+yrbfAT4Bx6jcQCG81uOO55GCDgj+lQaH0tc3k8mFLr5SjGO9RLJgjmqxuC10V5K1KvUUAWPOFOU7hmoKkWYKoGKzNAn6iimTTAkdqKAIZRgjmmUrNuc+1ITigAp+8VCzc8UjyECgB88Szpg96+Wv+Cin7Hdl+0H8MryNLVDfJCwifblgTmvqNZCVqvfWSX4CSAFT1B70AfzX/ABA+FGvfsy/FAQ3ZmszBKfLkIxlQRX6J/sZ/HXTPjfpthbPcxxanboqcnLMFH/1q+of2xv8Agnx4f+P1hJts4ku3Q7ZVj+YGvzT8dfsZfEr9lHxu9xosV4LWGQuJFbGVznHA9KtESWp+qsGgYgTgH5RzjrXGXsH2bxBrKekY/nXyn8Cv+CnE/hw2+l+LYRbSQEB3bLE9v6V9CxftrfDXxXCbuHUY1nuR8yhOv61cWZNWOJ1f/kpem/8AXQ19g/D2QReH7cnj5BXyzf8Axr8A3Oqw6hLdxxrbHIKpnP61pa1+3nHqGl/2T4NsY9VvWG2MEFaolM9z+O/xt0r4N+ELi9vpY0uSCI9xwckcV8gfAf4H67+3F8fB4n1dZholnIsyFxuR9jHj8sV6d8LP2N/Fv7SniGPVvHl3e6fpobzBb53oSDkDke1fZPgTwBovwq8Kx6Vo1tDaiMbS0a7S3FTIuJsWS2XhXR49L09EhtbddqIvQVSj5dm9TVZojEcFixHf1p6OcVJZaT7wp7dDVaOTDcmnmbI60AOoqNn2jk0nnD1NZmhLRUXnD1NHnD1NAEtSVWEwz1qQycdTQBJvFI8KycnkCq73HHFCXORg8UAfHH/BR79hu1+OfhS6v7K1X+0YRlGVctxz/Sviv9kr4qap8G9cm+HviYyWYjmeSESnGfmIXj8q/ZLVrQX1i6+Wsm7gg96+XP2sv+CeumfGNzrGlxCw1eMgiSFAGJXnGad2K2ty18LdJvLnSRIS4R1yD611tl4RMUUtwxyWGc+tfNHw7+I3jb9l7WhoniewefTISFF1KxZmH0x6Cvo3wx8cvD/xC0lZ7O6CKFyFxjdRdi5Txv488JOv93IrpP2Mkxcv/vGtn4leHdI12LJuE3SjJ6VD8J49G+HMEtzcX5hiRiSRii7DlPfxjI3cDvXz9+3x+1fpnwt+Hk+hWMkc+pXitCFVsMhI4NVviP8AtkTa3FNpHguyTVrqVTEHbKlSRjIrn/gD/wAE4te+JPiFPFXxDmug24Si3lw6ZBzjt61SYmrHkX/BOv8AYJ1H40/ECz8aeJ7SQ20ci3CNMmRIO/P41+pl1DFo+l2mm2hC21mnloo6KKxvCuhaf4A0GKw0mKO3t0XaqoMACrSyM7FieT1piJo0VeR1qReoqBXyafuPrQBPTGJ3UZPqaSszQbLkkc0U7bu7UUAROcNkd6aWJFI8mQKa7jbQAM2DSFs03eKWgB6fdFI54pu/Hekkk6cigBk8AkGT2rJ8R+C9N8TwGO7sbWcEYJeME1qyS4XqKi88+op3FY8I+Jv/AATz8B/Ey4aWezS0dupgiVa4WD/gkH4Bjm3LqmsR57K+AP1r6y8we9OlIjiVj/FVpkWPm3w9/wAEuvA+gyZ/tHVZ1z92Rsj+dez/AAx/Z98KfCsRtZ6ZZzPGOHlgUmulnmIAIPWoWumI607sXKjYk15YIykMMUSf3UXAqhLMZm3etVQT3609ZPwpXBIkAOTk5pwbbUfme4o8z3FAyVXyaUvtNQ+Z7ikMuDQBM8hcc02oTKAKTzhWZoT0VB5wo84UATjg08zEiqvnCjzhQBMzbaFbdUPnCjzhQBK7EcCmMNy4ycU3zhSrKGYD1OKAMfxL8P8ASfFlu0d7Y20+4Y3PGGNeb69+xb4d1tz5d5fWKk/dtzsA/I17JMnkzBMhj7UskPkEbiOadgPA5f8Agnp4fvnVn1/X/k4A89v/AIqr2if8E+PDej3YlOta1OvdJJSVP4Zr3PJhTn+LkUkl2eMGlYDC8B/Bjw58P4VFrp9pJIv8bxLu/Ouq1HUDd2scS4iSM5ATjNU5WeJAxdWz2FR+cW71USZFmJMIO9SBttV1nIUcil88+oqiSyjndT95qrFMS/UVMsgIoAseZ7U4HIqESVIrjaKVkaEkfeikjcc0UWQFN+AKY7Daeakuei1Xl+5UALuFSbh61UHBqbzAF69qAFkkCn61DNLnHFMeXHOajklzjmgTdiUsHGADmq1xfw2kReSRUUdST0pJ5WETFGIYDNfOX7RPxw1y1hNhY6TKiGZVaVW6jOD3oM+Y+j7PVrfUrcS28qTRk43KciqnifX4tJtFaWVY0HcmuP8AgFclvhras33mckj0PFZ/7QmpeXDpNpn/AI/ZTH+hrQZ28Piyzi0pbqe6ijgK5DseCKg0/wCJWg6rdiC21W0mmPRFbk14Z4y0/UfE2t6FoFtNJHZoDFcAdD161N8Ufgpb/DPw0muaZKtteWpVSFGC+ep/SgD6HSVZFyrAinZHqK5X4O+I38R+FIbjaZ9qhWPvjmulLjPpQBLkeooyPUVFvFG8UAS5HqKQkYPNR7xQWBBoANw9aXI9RUdFZmhJkeooyPUVHRQBJkeooyPUVHRQBJkeooyPUVHRQA/cB3oDbiADimUU0hNhrN2NGsHuNwbyxk47VxHhX9oDSfGfih9L8+NLiJgoy3U10vjRx/wimpc/8sGr4d8IeHdVk+I+v61p3mE6Qwm2r/F2/rWiRLkfoFcNIEQNIHVRxgVXnuRFA7n7qKWP4VwHwI+LUfxH8Oqjyg3lsAkyZyVb0rs9XJGk3n/XB/8A0E0+UnmOe8FfGbTPHOvTWFp/rYd247s9Cf8ACuyB46ivk/8AY7Y/8Lh1X/em/wDQmr6sDjHWk1YE7lhSNo5pcj1FQqwC0u8Uhkqtg1PFMAAKqBs9Keh4+lAF5CM9alV+MVTtmLMcnPFTqcEUGhZjI55oqOPvRQBVvGIC1XdjtPNWL3otVZWwKzAb5nuaaZiKjZsGkLZoAJJuaa8uaa/LUnPtQJodvzwehrgPjdodl/wh8kv2ePzPMHzY5rvQeK4r43n/AIoaX/fFBFiv8DZSvw9hA6CVq5j4iyv4t+KOm2isWGm3O9h6cGuj+BVwifDNHc4CSuTXOfD511X44a/dtloMKYj1HWtB2Z6a+h2FrdR3LQxJJFyz45zXkH7RXxIg1+MeF9Lb7Vf3rB1HoAef51e+O/jnUNX1i30bQipkuCUmO7BQ10nwp+D9n4Pto7y9Aub+QbmeTDlD6A0BZnQ/B/wl/wAIh4OgtWmdZmUSMvocc1vG5wTUOmK8kzAYCgHBJxTGchj0oFYs/avpR9q+lVt59qN59qALP2r6U1p9x61BvPtRvNAEjXOR1xik88/3jUVFRZmhL55/vGjzz/eNRUUWYEvnn+8aPPP941Cz4NBbA9aLMCbzz/eNHnn+8ag8z2o8z2o5WBP55/vGgTnPWoPM9qA+T0qkiWiHxnMP+EU1Hgf6hq+c/wBj20W8+InjSOcCWGbaCrdMZFfQvjOT/ilNS6f6hq+e/wBjCUv8S/F6epXH5itloQ0J4r0+7/Z++K6arEzxaReyGWYDhV7f0r6H0LxBF4p8Hy38Um+F7Zjke6msX4q/Dq18f+ELqzuRyy4DAcj6V498HvH1z8LNUv8AwvrDusE0crws2T8oBA5P1qm0TZlH9j+6i/4XBq2G7zf+hNX1N530r5J/Y6kQfF3UyxyXMzDHIwWbFfWAk46VDY4qxaWbil876VVExAo841myi2soJqRJOOtVVfocipI5OKALtvJtY5NTLMCw5qpC24mpY/vig0LqSdeaKhD7fSigCO8k+VeaqTScdafPOkiLtYHFVpnGOtZgMaXBphlHY0xpBg8ioC4yeaAJZJyG6ihLnHUiq7uN3Wk3igCw98qJgjNcz8RdHl8VeG3tICqyFtwLHituZgR1qsZVQ8mgXKji9D0m68E/De8tJTulVJGG33FVv2f9MlXwymoXC4muV5yOa7O9kjupnBXMTrtK03ToYNOt0hhTZGvQelaDPHPFXwz8Z6T4+vNU0e4svJu5fMUSruK/rxVmyf4qxybTeaZ5THJzHz/OvZo50wckCnSSIRwVoAy/Ctzqf9koNReNrjjJQYFbIkBFVkcAdacsqqeooJkTGTnrilWT8arPcruNLHcKQaCSwZOKTzPcVC9woWmrOrDrigC15g96N496h+0LR9oX2oNCbePejePeoftC+1H2hfagCXeKYZM+tM+0L6imfaFoAm3j3o3j3qH7QvtR9oX2oAm3j3pUbLAe9QfaF9qQ3QQZHWgBvjOInw9eRDl5oiox614j+yl4LvvCfxJ8Ty3cTpFOV2OVIDcivbZZvtPDdDRaSeUXj+UIOBx1rQzLtzcrIjqQcH9a8e/aa+E7eLvDUl5pw8vUYhtVhxx36V6s10XOD0XgU3ykvDscgKfWgD5q/Yg8GaroHjG5n1WCVDsdAxQgHk19UeZ71mQ20VlJsjCgdcgVcFwmPvCpkBMZsHrR5/vVZ7hdx5BpPtC1IF9Z896nguMJjNZ0c6Z+8KmjuEx94UAaUN0FJzzUy3AJBFZsEq5PzCrEcq8fMKDQvfafc0VV81T3FFAGa115BOD1qOfUjt61Vv7jy2FU7i8yOtZgWm1XBIpn9qGs5rkZNRm+BFAGi2qHdR/ap96ynvBu60n2wetAGo+qErVWW6Lnk1Ue9AHXNV5L4lqANETkUeeazPtx9aPtx9a0A1PtDe9H2hvU1l/bj60fbj60AaguWz1P50v2tvWsr7afWj7cfWgmRovfMHNOivGYGss3hJpReEUEmpJeMq1GL5s96zzek96QXfNAGt9rb1pftbeprJ+2n1o+3H1oNDW+1t6mj7W3qayftx9aPtx9aANX7W1M+1t6ms03px1qP7cfWgDW+1t6mj7W3qayftx9aPtx9aANb7W3qaPtbeprJ+3H1o+3H1oQGv8Aaz6mj7YfU1k/bz7Uf2gfatDM1vth9TR9sPqayf7QPtR/aB9qANYXjDuaPtp/vH86yft59qT7YfapkBsC/wD9qj7f/tVj/bD7UfbD7VIGx9v/ANqnx3xx1rFS8OasRXQbvigDZg1IgnJNWYtTLEc1hC6A71LBd+hoNDoI9QbHBorIW9IFFAGnq/h6+uJgIkBAqjP4R1Pb/qxXssWnJGTiM/lSyWCuP9UP++aUoK+jNIw0PDm8Ialk/u6Yvg7UmP8Aq69uOlZP+qX8qjXSQD/qx+VRy+Y/Zniw8E6izf6vrTv+EF1H+5+tez/YFU/6sZ/3af8AZlxzGPyp8rJlB9DxX/hBNR/uUxvA2oK3+rr202yf88//AB2mNYo5/wBWPyppMxfN2PFG8EagB/qxSf8ACFaj/wA8xXtj6VkcRgfhTf7HP9wflVph7/Y8V/4QrUf+eYo/4QrUf+eYr2r+xz/cH5Uf2Of7g/Kq5g9/seK/8IVqP/PMUf8ACFaj/wA8xXtX9jn+4Pyo/sc/3B+VHOK0ux4qPBWo5/1YpG8H3sfVBXtY0fn7g/KlOiI33owfwo5wtLseJ/8ACIXrdI6B4L1A/wDLMV7a2iRKvCAfhTV0dcdEH4UcwWl2PFP+EK1H/nmKa3hG+U4MYr24aOo7J+VOGkw/xKp/Cjm8h2n2PD/+ETvv+eYo/wCETvv+eYr3H+yLb+6v5Cj+yLb+6v5Cjm8he92Z4b/wid9/zzpP+EPvv+ede5/2Pbf3V/IUv9i2/wDcX8hRzeQ/e7Hhf/CH339w0f8ACH339w17p/Ytv/cX8hR/Ytv/AHF/IUc4e/2PC/8AhD77+4aP+EPvv+eZr3T+xbf+4v5Cj+xbf+4v5CjnD3ux4X/wiF7/AM86P+EQvf8AnnXun9i2/wDcX8hR/Ytv/cX8hRzitLseF/8ACIXv/POj/hEL3/nnXun9i2/9xfyFH9i2/wDcX8hRzhaXY8L/AOEPvf8AnnTv+EMvT/yzNe5DRrcH7i/kKX+y7b+4v5CjnC0ux4aPBl6T/qzQ3gfUCPljFe5DTLYH7i/lStYwg8Kv5UcwWl2PCx4D1Q/8slpy+BtVX/lkte5C2QD7qflSi2TP3U/KjmC0ux4j/wAINqn/ADyFSx+CNUGP3Yr2z7Mn91PypVWNcfKv5Uc3kO0ux4rL4M1dMbYl6UV7h5cMgHyL+VFZPEwTszF4aq3dM+M9I/4Kxpr2mNe2XhzU7m0UbjKjAqBUnhj/AIKsN4zeYaV4Z1S+Nu2yTymB2H0NcD+xH8E7OH9nWzhuoFk/tS1GMj3qt/wT++HQ8IeLfH8c1l8i6viJSMZGK+Op4zEVIxl3P66zfhvIcJXrUqcL8mi8z1Bf+CoF2+tjTR4S1g37LvEGV3keuKp+K/8Agqs/ge3Eur+GNU0+NjtDTMoBNafiDw3ZWP7XVg8ekJHE2lMzXI6A7RxXh3/BWDRBc/BCzlsrLzpRenc69hxWeNxmKo05TT2OHhvh/Ksyx9HBypJe0e53L/8ABa3w8G/48J8/9dRTX/4LWeHj0sZwf+ugr8kgGXh/vA807bxXxVXjbFwlax/VGE+jJkEoqcup+tP/AA+s0H/nyn/7+ij/AIfV6D/z5T/9/RX5K4ox9azfHeLO3/iWPh4/W0f8FrdAx/x5XH/fwUv/AA+r0D/nyn/7+CvyRx9aMfWofHGKF/xLHw8frd/w+r0D/nyn/wC/go/4fV6B/wA+U/8A38Ffkjj60Y+tL/XjFh/xLFw8frd/w+r0D/nyn/7+Cj/h9XoH/PlP/wB/BX5I4+tGPrR/rxiw/wCJYuHj9bv+H1egf8+U/wD38FH/AA+r0D/nyn/7+CvyRx9aMfWj/XjFh/xLFw8fra3/AAWp8PMObGc/9tRSD/gtN4aH/MOuP+/or8k8fWjH1prjjFi/4li4eP1t/wCH03hr/oHXP/f0VG//AAWo8NBj/wAS64/7+ivyWx9ajdfmNNccYsP+JYeHj9bP+H1Hhk/8w64/7+ij/h9R4a/6B1x/39Ffkjs9z+VG00/9d8YH/EsXDx+t4/4LT+Gj/wAw64/7+ipB/wAFpvDR/wCYdcf9/RX5IRL8vNSIozS/13xgf8Sw8PH61/8AD6Xw3/0Drj/v6KP+H0vhv/oHXH/f0V+S20UYA9aP9eMYH/EsPDx+tP8Aw+l8N/8AQOuP+/oo/wCH0vhv/oHXH/f0V+S3HvRx70v9ecWH/EsPDx+tP/D6Xw3/ANA64/7+ij/h9L4b/wCgdcf9/RX5Lce9HHvR/rziw/4lh4eP1p/4fS+G/wDoHXH/AH9FH/D6Xw3/ANA64/7+ivyW496OPej/AF5xYf8AEsPDx+tJ/wCC0vhrH/IOuP8Av6Kj/wCH03hr/oHXP/f0V+TRxjvUfHvR/rziwX0YeHj9af8Ah9N4a/6B1z/39FH/AA+m8Nf9A65/7+ivyW496OPen/rzix/8Sw8PH60/8PpvDX/QOuf+/ooH/Babw1n/AJB1z/39Ffktx70Dr3o/15xYv+JYeHj9bG/4LS+GsH/iXXH/AH9FRN/wWn8NZH/Euuf+/or8nDjB61Cw+YdaFxziw/4lh4eP1i1D/gtv4dsnVV0m7kyM/LKOKK/KBjjHU0Va4vxMtbE/8Sy8OrQ/R/S/+CjmifDG68PaFp1pBLptj+7mlKkFF57V6x8Ef2uPhx4XbU9TkvwG1Kfz3TyuASPrUR+Enwp8RXvnJY3rxscqyWeePwrrvhp8CfhV4qmk063F3FeFsIk0AjB/M1+iYfLsXThGMlsfx3m/GfDmJjKUJNOV7/PU567/AOChPw9vPjZD5s0QtPsbL9o8s7g2OB1ryP8Ab3/bI8H+KfhSNM0hkvbmSVvlMZG0EDnrX0F8Vf2ZPhb8OdSjN3FcPdNGCqxQByc+wrkdG+E3wx1XVUjvrC9VZSEQyWeBz061ONy7F1YShBLUfDfGHDeW4yji3OTcHc/Ii5Wd7pisUjKTwdppVt7kn/USf98mv2v8R/sW/CjQrCG7lijEcx4CxKSfpzWDpv7Ovwbutajs2tbiJ7htsbPahV/M18tW4HrVI3a1P6So/SvyilDkj0PxzFrckf6iT/vk0fZLj/nhJ/3ya/aPxl+yd8IvBFskl1AXEg3KIoFcsPoKg8H/ALLvwh8YOEhtpInY8CW2CZ/OuD/ULEdi/wDibXKj8YPs1z/zwk/75NJ9muf+eEv/AHya/cHxH+wr8KvC+ny3d5HHHDGhf/VpuPHpmq/w2/Ya+GPxM0uO/sLUNZzDMZMKgmpfAmIQv+Jtcq7H4jfZrn/nhL/3yaPs1z/zwl/75NfuzN/wTZ+HschX7GnH/TIU3/h258Pf+fNP+/Qpf6i1w/4m1yvsfhR9muf+eEv/AHyaPs1z/wA8Jf8Avk1+6/8Aw7c+Hv8Az5p/36FH/Dtz4e/8+af9+hR/qLXD/ibXK+x+FH2a5/54S/8AfJo+zXP/ADwl/wC+TX7r/wDDtz4e/wDPmn/foUf8O3Ph7/z5p/36FH+otcP+Jtcr7H4UfZrn/nhL/wB8mj7Nc/8APCX/AL5Nfut/w7c+H3/Pmv8A36Wj/h258Pv+fNf+/S0f6i1yl9LPK+x+FP2a5/54S/8AfJpjWtwWP7iT/vk1+7P/AA7c+H//AD5r/wB+lpjf8E3Ph8T/AMea/wDfpaa4ErlL6WWV9vwPwo+yXH/PCT/vk0fZLj/nhJ/3ya/db/h258Pv+fNf+/S0f8O3Ph9/z5L/AN+lp/6h4gl/S0ypH4Ui2uR/ywl/75NSC2uP+eEv/fJr90x/wTd+H2f+PNR/2yWpP+Hbfw8/59F/79LQ+BKwv+JtsqR+FH2e5/54S/8AfJo+zXJ/5YS/98mv3Y/4dt/Dz/n0X/v0tH/Dtv4ef8+i/wDfpal8C1kH/E2+VH4T/Zrn/nhJ+Ro+zXP/ADwl/wC+TX7sf8O2/h5/z6L/AN+lpD/wTb+HgH/Hmv8A36WhcD1g/wCJtsqPwo+zXP8Azwl/75NH2a5/54S/98mv3Uuv+Cb/AMPobBpRZrkDj9ytc54b/YY+Hms3uowvZKGsRziBaa4HrPoH/E22VH4nfZrn/nhL/wB8mj7Nc/8APCX/AL5NftCf2I/A91dSwwafF5ithC0AAP41veAv2APh74rtpWkslDwvsbEK4zVrgSu+gv8AibfKj8QRbXOf9RJ+Rp/2Kf8A54P/AN8mv2r+KP7C3gHwNZRTQ2KNukCtmEdM1Wv/ANjb4cppOm3MNopN9L5ZBhXIqv8AUKuH/E22VH4u/Yp/+eD/APfJo+xT/wDPB/8Avk1+6dj/AME3/AN1apIbNfmH/PJam/4dr+AP+fNf+/S0f6h1w/4m2yr+kfhN9in/AOeD/wDfJpj2lwG/1En/AHya/dw/8E1vAB/5c0/79LTT/wAE1PABPNmn/fpan/USv2BfS1yo/CN7e5x/qZP++TSx2lwcZgk/75Nfu03/AATU+Hve0X/v0tH/AA7X+Hq9LRT/ANslo/1Erh/xNvlX9I/C0JNCAGtnOf8AZNFfujL/AME2fh9IRmzXj/pktFZvgnGLRFL6WeTdV+Bt/sh6Jpk/wr04mzQtLCN7SRg5/EiuU/at8EW/gnxPp+u2X+jzQLhRGdqnJ9BTP2efjDeeEPh9aWF7od8/2aIKegxSeMLzV/2kvFtraLpd3p+mW4KM8wyp7iv2w/zbckZvxBGqab8TtF8Uy273+nppqRtCkfmEsVXnFbd58dPDfjaKLT9V0G+siCNsn2fygD9cVZuPFXiH4ReK7a2vtPudS0uOAKDGg2joB1qt8S/idpXjfTHt18OXc1xMu1CmMxsR1NAuZG5f/Aqx8ZWmi3MOox/2fp83nc3HUY7881zH7Q7aZq1mmj6JE0t8gMcc0IyFPqSK4i91XxX4K8LaVo0Gm37wtIUuSq9UI+tdx4A8V6f4OC+T4ZvzdN9+QkHcaGw5kc58HtHl8bfFTRLTUWc/YYWhdXJwxGOxrp/2sfC0fw+j07UrJhDP9qghGw4XBcDoKh1a3vPAHxU0zxJDZzT2U0bSTQxj5lJI4NP+MGo3Hx88QafpUFlPBbI8VyZH5UFSDis5SDmRv/HT4STeNfAMmqzTyLssw5CSFQcIO2a1f2HmW3+DWlKm4qFIGeT2rtvH2jyj4R3doh3SiyMaqByTsxXI/seeHbzw98J9OgvYntpkByrjBFZtBzI9anm33D/WmhgTTJRsnf5gwJ7UI43dahoOZElFJuHrS5zSGmFFFFAwoJwCfSilUBiAelJsXO1sMs2+0nninXEPlzEDoKi1m8h0O0knkkWOOJdzsTwo9a8a179ufwPo2t3Fk2t2EktucNiXpWdStCEeeTsjCvjqdCPNVdke0bDSFCBXiK/t2+C5BkapZkf9daX/AIbq8GD/AJidp/39rxZ5/hE7e0X3ngT4uytOzqr7z20ITUz27Rw7yMKO9eGL+3V4N3f8hO0/7+1UH/BSX4e3/iWLw6+t2CX1wwjSIzfMxboMYrpw2Y0a/wDCkn6HoYDOsHjLqhNM94SYSNGB0kOAar6rrMWjlvOO3b71yet+PW0+XTYLSN5GL4wv41e1TSZ/F7Qm7BtosfOsgwWr0kmerpY17LxTbX4/dHdzjg5rRyTLswQSuelce3g5/Cki3Nm4eFeqrySaW/8AidLb63HG0MiZUDmq5STrbuMyae0XfBrzi08O6toV9rksLRYuh8uRnHIr0ayvF1C2WQDGeajt44bu4nQOpI++P7v1pRA851GWWzuNMt5Yy4uI8zmNec5rt/h+LTTIGW3gmjRzli46muVsru4ufiTHAVIgicqCRxiu/luFt/3fmIUIycVtEDnPi54Rl8V2tusW3YJlZs+mRmuQ8X/DG6XxFpX9mzRfZYJw0qk5+X2r0y41JX0u42OJAI2wR2OK4T4UavcXniO6W93NEo+QnoDmtQPQYJ44i0a5RY/7xrM1Lxxb6fNsCSzEdSnIFSeLowyhYWAMvQjvWPp/h2fR1Yq4czfMeOlAFsfEi3zzBcqPUitG08TwXkW5d3071h6jYyzwYnZUjz1IxVvSdHtLOMO91ECORk9ah7gasGuxTdQ0f+9xT49ZtpC+JU+Tr81VylhqpAcB89MHrVK58M6fDHdCBMSgc89KQHQJiRAysrBhng0Vm+Gbd47JgTuAPHtRQBx6fELwCls228scOOevNbfhLVdMv4GbS7iNrcnnZ0rxf4ReI/B8Xwx046lDEZ/JG9zHkk1rfBfV4PEPxDMWlTE6aHIYdAPTituYiVz2nxG1jJZquoKjRtgDd39Kz0+HWiaOv2zyIbb+LdivKf2ovC+sWGjwzwahdRoLqPG09twqz8WPHcvg34VaQ9xdSFriZYnYnnGFo5iHc7+Txt4XvdQa1NxbTTg4K961rbwvpU6iRLWJQ3IYV4fb6z4cl0AslwyTTLgThPnz616z8L7Q23hK0YXct2jxja79TUyYrs277wxZS2/lGFJVP8NZ48G6f4aP2jaltznGK2FJyME5rn/ipctFpDMWOFXP6VmmxczNJfElnqmEypxx1qzDqtlZqEyox2rw7SPGcFvp329LmRjvKhCOMitVJ9U1zR5NdQssMS+ZsDcGtB3Z66+v2XqlImvWRf7yV4/4X1C98f2s1yrNALbqEPWpP+EkfXNei0yFijIh3MvUkVjIE3c9f/tuyI4kQUf2zZ9pkFeaeGtZa+RrVj+8SQjPc4NJ8QI5PD0iXtxM8AbAWNeVJqTWLPUYbqO4UGNw4NSVwPgbXZtVhs5iSglPKg8V37dTQbISgdaKB1pS2BHK/Gly/wAN9eycj7G/8q/HX/hXVrrXjnV7mRVLSEE5FfsT8Zx/xbfXv+vN/wCVfkHc+Jo9O8Y3MWQp3Yb3r4XjepVhlknS31PyrxZq1aeVTdF62NvSvhPZ/Zx8q4x6Vb/4VTZ/3U/75rR0jxbB9lH3elW/+Euh/wBiv4txGcZhGo1d7n+fE85zKM2uZ7mGPhTZk8KufpXzx4j+Df2L9uTwxdBcY1G3PT3NfUsXi6ASqTt4IrxTxR44tpv21fDkeEzJf26qPfJr988E8biMQ6vt2z+nPo847E16tX27b9T9kZNNhtLnRpUI80vk+vQ074h+KZrW5i8y4aMgHah/jrK13w3f3mqabNFJIscEmSAeMYNbetQWYltpL4Big6sM1/SjVrH9gLY5Sz8YapcXS4uJBFn/AFfr71vpax6pqqvcYLCMEZqWOHTtSvENqFyBjAFVNc8L3kniKMxO6oApIFJozO68OkDTwKyNatbjRdVN1DuEMzZmx0x71q6cptLNQeMCqTeI7a6knt2bcBxjFSA20vNNadbkNGHXmpLjxBZNnOw5rDsL6xstWZZjhWbgY4roJJ9KvLlI4VRmK5xiriBjah4otNEnwhUWso2n0yak0jUdNtpMxGNQ3XFat9odnNasHt42AGQCO9Zeh6dbtMV8pOPatQJvEOuQLdWQRhtzxVtNfTaMHNReINOhW5sh5acH0rQttPh2f6tanmAxfEmuRPp2JMFdw61nalqtgbeIDZyRW74p09TpZ8qBJH3Dg1yHiC3vImg22Mf3xxmjmA15dettPubby9o+ftVu31cS65IoPF21VR4eu9Xu7JprOOBUcFtproNd0aKxDXaIFFp8wx3pp3A27KxWxt1B43jNFZ9hqDXtnHJnO4Z+lFMDyD4OeIvD6/C7Rra6s0NxBDhswjk+9Y2ixWt18dtNm0BLiG2UN9pBQom7I/CvVtN+FuiRTSRQqf3XBCt0ra07wrZaUpWGFFyfvbRu/OldEtHF/tMx3F98P4FjTfN9qi4Az/EK4H9oHwld+Ifh/oEckTt9ku45pAgJ+Uba931PS49RthC6h0BDc89Kmi0yNrYwyJE4xj5lBFF0S0eUX+ueHR8NJDHagTNCQoEXzA8dutbfwIW7/wCETieYMsDoDEGyDiti3+GuhnX3kmil8xTn737v8ulbk1/aW6tDbGNhBxsjx/Sk2KyJ4RlxWJ8StP8At+kuoycrg/lWzFceVb+Y6sAeenNVrnULe6YIZEDH+EnmpCyPGrbTJV8O/wBkfY0FsJGcyhPn561csbGbS/DZ0i3E7Wu3buYHcRXryQ2Vg4WVYlz3IFSxxWl1KywiCTH90A1SYWR414V0+78EafdR2kTv9pxneDxVez0O90HVft9rC0txJksGU4BNe3x2sC30aN5KHP3WAy30p1hbCC8f91GeeDtBAFSwsjxrS1mgZpLiKSORiW+VT1p+p6tqGowNbSW3nQuMBnUkj3Feqas9vLemN44w4G7hRS2uo2CQFXWFWUdSAAaVkXE4b4e2I0eztrcLMfIPBZTXo8b+ZGGPeqEWpw+WCoiI/wBkCnJrkA6sMjtnpRZF3L9G4Jyeg5NV7TU4byQIrjce2asXxXT490hBHXiokg5mYnj7Sk8W+E9StLXdm5t2j+bjqK+BNe/4JVa/rPiOfULYjZM24AzYr9EbHUINXjIheMKo65HNKh8n5QVOPSuHEYOnXp+yqq6PGzvJ4ZjRdGezPz5tv+CY/i+3j2qIce81Tr/wTM8X9xAP+21foCZiB2qKW4c+n5V8hV8PMpqTc/ZI/Of+IOZRJ3lBHwTH/wAEy/FQwT5QA6/vq811b/gkB4tm/aO0HxUChtdOvYp3xP2U88V+nLTy5xkY70sspSPEQGT13c17mTcMYPLG/q0LXPruGeCcBkrk8NGzYtnbrHaiNlUtjHTpWdrXh6LVbqKGTOx85I6itK2baig8mpgATnHPavpG9T7Xoc34V8NR6dcy8H5HIGfSukKKZ/MKqW27elAiROVGCetLUtk2RBdQiS0dckbhjisnw7aRWV3IP3TH1YjJrZm/49zXPaX4cj1PVbqTdIChyfmwKqyIK3jzyFu45MRiVR8oXGDUmmlU1e2KlMtHk881Q8WeHFs7hbjzC0Uf3kLZZvpT9P0JbXxTaShnBaLIBPAFVbQDrbvm2b6VleGhvvJB6DNbN7ZMbMncOlZPhSL/AImMwJHAouBY8Rf8fdn9av2v3KzvFEwjvbQYJw1aFod0QPrSAkaETjaenWsjxFGpniXAwGFbUX3vwrH8Qf8AH1H/ALwoA2rKANETzwuaq+JJS+gyp229fWrtj/qW/wB2qOugtpE3stAFXw5HjT1GT0FFL4eYCxAzRTuwOV+EWrzaj418RRSElYZQF/Su8MyFyNwyD0ryfTlvPBN/4knXcs94wMHqTx0qhF8QdRl0O4VppI7wuMNnkUgPY7i48kHJxgZ/CsWbxvYxsR9qiyOOtchBr+oW3iS302e4ec3Vr5m89sjp+tVJPgtcTys/2tvnJPSgmRu/ELx/FFo9vDZTKLu9JjDg52n1rEutA1XwRo9tqqXqebt33HB/eGp7z4VPZ6THKAZp7H94gxzIfSqOranrnjO1tdLk06a3ilGyR858ugk7bxz40fTvhnHeq2ZpkU7h2zXI2XhDWtS0j+1HuszD51fBwF64rU16xfxR4TTQUjMfkqFMvXJFU7fxTryeGm0iLTp1dW8sEHqvTdQBHZHUvGWnteT3apbQ5DKw67etUfhV4zkHjnVI4rlRZwKDGCcjrVjTLDU/A9k1pLDJfQy5LIeBz1rn5PC95Ld38mm6c1h5y4ULQBZ8TeP9T1jxbd38dz5cOjycDH3x7V6z4F16bWNESdpA/mKGOO1eb+GPgbeXugt590/m3K5lQrzmt74NQaloEd7YXUUhiWXCOegAoA2dauyviXO0lPL5rkPFkya9qyWlrcJbbSDlj1rp/Fl4LHVJMttLREA/hXK2ej20PhxruRllvQzEDv7UFRLHm3vw8ikkupvttuw+UJxipfhXq0fjbV7x5VZFLjYrHoMCuag8Tal4jvNMtbiykS3ik/fknh1x3q9qOojwR4hM+mx7od2WjTovtQUdsUGl+MoEiU42np+FHxW8aR6HoGXfDTERLz0J4H86paBqU3izXbadUMBCHPv0rM+I3gm58d+M47FkaGwjjWTf1XeMGk0Bi/CLxNdad4pm0rUJxJEqiRG6BtxPFexIUC/INq9ge1ePeKPhTdaTqdncWV21xKki79o5wK9U0ZpZNOjMwIkI5zWdrild7F/OaZIOaWMdaVhhTVKJKi+rIMc0eX7GpKKHoaRQ1UAA4qSPvTadH3pFjqKKKAIpeYSO9c1dx6np32qWCbYjjIGK6aoptvlyeZjZjvWhmedak19ex/aXu0eSDjysctWlpl3eS3sN1MjMI127cc0XF3p1tr4A8vJPNdINW06NVy8a8daV+gBdeJc2LAW0mdtYvhbxCY9SmBtpASO9bMuuab5bf6RH0rK0XxBYx31ztdJn2/Jz3pgWNZ1ea+1C3QW0qqrcn0roreNIbdMMCWGSPSufWe8ulEnluu7nFOmjvIrGSfLr5fb1oA6OORQ+MjOKx/ETBbqPJxlxXP2/i+8RS32d3w23OafrmuXd0sL/AGNshgetAHeWKHyW4/hqlrSbNJuCwwNvWsuz8Y3YiI+xt09aWXXW1rRrpHUoyryvpTSuBNoAxZ8cg0U3w5k2AHpxRT5QMDxdo9p4+0aDUBdPaKF3Axj71YvhT4UWVxMZ1v5bhkPKsBg1Jo2r2lh8H7WLzG86KDDK33s/SsTwj4u1W1uxBbxRlJzuBfjAqQPR5vCMUutwX2AGgi8scVtpqMKgDavHFcpJ4pmk8JS3qrm4ifYVAyPeuU034pXeo32w27qmcEmMigTR2/iH4taJpt29nLMEnt+XAWoT8TtChhhPmjzroZjAX71cVrmow+ItTuLS1hhM5GJ2kXBA9jVux0y10Syt4VVZbpRhC4yAfrQTZm1pHxG0VLqa4WcGON9snHRqtr8RtGhvx+/xM4yvy9q8dtbyS01+5FxCVtmmzJtTIzXbeL0t9X8R2yWEamQ2Y6L8v3R+tAWZ2974ptBY7yElB5Vj39qsaJcJqNgk4jVC/YV4/p+q3p1G30Bkc3NvMJnbBxtJ9fwr0nUbzVdLYx2kMRhUfLkc0BZnTwymHOCRRHtRiVABPJ96wfCmq6hf+d9ujjTafl2962RIQaAswutPgvX3SxI5xjJFRjRbRVwIIwPTFSiYk1LQUkVo9FtEfIgjB+lEnh+xkJ3W0RJ68dasjg0jvgE96BhbWFvZAGKJIyBwQOlSbVL78DceM0wSZUcilV8CgBDaxls7BmpAMCiigByHGaXINMoBwaAJMD0FJlfam7zSVLQ0x+V9qNwFMopWZXMh+8UbxTKKLMOZD8r7VmeILS4udNuBCOq8H0rQpsp/dMOxFWQef2s1hY6vbJNiSXHz7h3rpf7T0ySE5RODjpWXNpsVx4njJUZBPat9NGtxESyjGewqbagZ0l9pTxsPLjGRjpXNXEthFq6JbN86Nk4HWut1mwtNOtyGBDONq8dz0rmILAaTeML9VCTfKrR8tVWA7vTds1kjEgEjpTdWkaOxdUAdW65rm4rp7OMR2zO8K8KX6mo7vULue3ePoG71aQG5pUcBtiHRAS3StOSG3khAwnFed22iMZz5s9yqHn5WNXVsLdcA3N7ge5pNoDurazjZGxtxiuchG251UDoKr2cdisbD7Ve8D1NPWa003TrhoWnkMq8lgc0XQG74bAWyOe9FReF7gT6eCAw6dRRT5kB5trlzoreJCr294CrcOpIh/wAMVbk8RaXPPGbG3mkMI2syDIz+FZetX8PiK5fTrd1tbZTsIbncKs/CXU9O8IWuowXCiHEvylz/AKzjqKgC/a/E3T9B0eREgnbdJzGRlifXFOX4radFat5tk0b4yB5YBP6Vzurarp+pXj3Edo1nMHwszn5SM1y/i5r/AFDxHDbwTC6KlWE0Y+UUAdbZa/pGo6zHc3FreQG8bbk5XNa2oeLdGk1A2clvdrDbHaJegA9c1xni3S9ctZ9Ke6uFubWGXcURcFRitC81y28TmSzjZba2+7MrHmQUAa48e6FNK1pDayzxk4ZlXcfzxVzTPFuheE9TWC3guZGmXdk/MQT2rjY9Jt/BXh+8k0+aNrh3BQA5OKPDsDX1q1w06Q3QywLd/agD0ufUNP0e6i1OUwxTTsFw+AxFbes+L7a10ttQd4xb7cgHGTXlPiHTT4o8J2NxewySXi3OM9MAYwapeOLHVJvD00JjlltYEJRFHWgD0mf4oWEdpayxo8v2sZUR8kfWq7fGDTkuBGscrueqryRXmXwl+0aebZ723ktk6x+Z2FV9J0m+vPHFx9lk8kySMQ5GRQB7F4b+Jdn4h1VrQRy28ioXPmjHArT0nxvZa1q01pA6u8C7mYNkV5foXhrVbP4qiLUpftcclmfmRcDBHStn4e+Hbfw38Qb+KK1lSB4Rkk8ck5oA7IfEKwbUbi2DZe25c54FZMHxesL/AFprJIp927aH/hNcR448MSadrmtXFgrKt0uARzu5rP0y3k0Pw0t5LMk08SZEQ+9n0oA9EtvjHY3Ootaxw3DujbSVGRmuvguQYkJypcBsHrXiemBtM0OW7sWC3k0qts6tz1r1nShPe2sE9w4LGNQR3zigDa8zPcU4ScVUBGOtTxuNg5oAezbqTOKa0oX3pkk2U6UASNPtPWmNOO2Kh8z2puR6igCbzz6ijzz6iocj1FGR6igCbzz6ijzz6iocj1FHDcZHNAFhbpSW7BRkmootbtbkmMXEO/pt3jJqpqhW2024DuEGw/MegryZpEm8RWj2jFTC+ZJs/K/vQB6LPPHa+IUZpECgnJz0rds9SgvIyFYOAeqnNecW1hNr2mao7zrvjf8Adt+Fanwmkkt9CuklJkZZsZ/OgDqPFd7ZLZ7rpxHj7hLYye1c5pZW7vFe7lj8nP7vJ6msn49wG/0m0txkuZ0KsOxyK5HXNVudL1rSdJvCxMMwPm9FfI6VUQPavskbtlANp6U9LFD1ApLNQtuoByAKmVtuaoA+yRAcKM/SmtZxsPuj8qf5ntSg5FQ9wI4tPhQNlRzT009TCV2rgjjinVPH9wUgJ0MUUEaoNu0YNFQ0UAYreAdMe8jlNhGhQ5J9abrXw80nUmVmtYjtFasmqZ9Kjk1EFe1AGVeeBdOvbMQy2kZjGMAjio9O+HljpnNvaoD7CtddSXbg4I96fHrsaegoAzbzwytxGVltw6j+E1n2/wAO9KLsW02NCe/rXSHXEfuKadWRuwNAGA/w70v+GyjH4VGvw7sFcEWq5B9K6I6mhHQUx9QUnPFAGcuixOfI+zD90N1F9pwurMxhcLjpV5dRQuSMbiME+tKt2gPQYoAyv+EWt9RtIo541YQjC5pbfwZZafKJY40V16ECtVrtFPAFMkvU28gUARSaMYLtbxhiXbsHripH0oxoJlH7yU7W9cUNqgkwCc4qQagNuM5FAEV3otusO11VwexrHk8F6ZNMWFvHk9a3ftqseQDSG+gQ/dQUAZFp4PsLWYOluisOhrYjiCKBjAHQUp1SAjjbmmHUYvUUAS09Puiq/wDaMfqKlTUoto5FADnOMU1ydvWmy6jGccimpqEW7nFAC5PqaSpDfw46LUX9oReooAWik+3xeoo+3xeooAWgdaT7fF6ik+3xetACalo0mqW7pICYZht5rnovhbDa280UZEKIMDA610f9rfLt3nA6CmnVVIIyCD1oAzdK8HiwsSmB5Z+8ccGl0/wu+lwSJAxQSNuJFaP9rB12A8elPXU1UgcGgDP1Dw5FqVvGLhQ7RsGye2KpeIfAFl4ieGeWJJGgbdHIR0Nbc2pITjApseoIi7eNvpVRAXToDbWaITkqOtPfPOKRNXiXAwOKJNVikPGBVAOGcd6chyKhOoIfQUC/TPWgC3U8f3BVH7anqKlTUECjkUAWqKr/ANop7UUAV57G0t4yzzHA/wBquf8AGerf2DCjQZYOM8189v8AtKXN5KIi0nJxX0XqOlR6x4B0m5YEvPbBqzA5E/EC4P8ACPyqI+Ppz/CPyq9/wi6en6VEfDSZPFAFcfECcD7o/KlHxDuB/CPyqf8A4RpPQUf8I0noKAIB8RLgfwj8qX/hY1x/dX8qm/4RpPQUf8I0noKAIP8AhYdwP4R+VKPiNcD+Ffyqb/hGk9BR/wAI0noKAIT8Rbg/wj8qT/hYdx/dH5VP/wAI0noKP+EaT0FAEA+Ic4PKj8qS8+KX2S3kmbCRoucsMVYHhpM9B+VebftZyjwl8IdSuWJh8uCQ7hxjAoA6CD9pbT51H+kwZP8AtCnv+0FayHIuIcdvmFfkl4e/agtGnG/XIVGehuef512lr+0/pLRDOvWwx63Q/wAaAP04T4+Wm7/j4h/76FDfH21HSeH/AL6FfmfbftMaTLKB/wAJBaD/ALeh/jVxf2j9H7+IrL/wLH+NOwH6Qt8f7cf8t4f++hTk/aCh2/66D/voV+cMf7RWkN93X7RvpdA/1qwP2h9HVefEFopHY3Qz/OqsgP0Uk/aCgOP30H/fQpE/aBhDf66D/voV+dD/ALRmj8f8T+1/8Ch/jSJ+0Zo+f+Q/a/8AgUP8aLID9Gz+0FD/AM9oP++hTF/aAgY/66D/AL6FfnV/w0Xo/wD0H7X/AMCh/jUZ/aM0f/oP2v8A4FD/ABosgP0dT4+2x6zwj/gQpkv7QNrE3M8OP94V+b7/ALRmlbuNftP/AAKH+NV9Q/aN0w2jquvWpY9D9qHH60WQH6cWPxki1hQtpLHJIe24GrY8eX+PuJXxJ+wb8W7Xx18UYLOLU4btijnas27pj3r7ktPDbXXQDiiyArjx/fd40/KpF8f3pX/Vr+VW18KkHkCpV8LcdB+VFkBQTx9ebv8AVp+VI3xAvfM+4v5VpL4W56D8qa3hb5+gosgM1/iBe7vuL+VP/wCE/vf+eaflV1vC2GHAp3/CLew/KnYDMbxxeMfuL+VA8cXg/gWtT/hFvZfyo/4Rb2X8qAMweOrwfwLTl8d3hYfIvWtH/hFvZfypH8LHacbc9uKAM7U/iLeabbSyMi4jXIrV+F3xO034gWcqrOVubYDzVzjBqhrPhsjwvdfaAGYRnpXx7p/xlk+FfxR1eCB5VEsuGBJxxQB+gKfYSuTO2f8Aeor4/t/2qLmeIEO9FAHEWE6tq0akjJbgetffmjae83w28Pgodps1r889Mbf4nth/t1+legIf+FX+HfT7EtZgcw2igdVNQnSAD0FdM9uHqFtNLUAc/wD2SPQUf2SPQVvf2TR/ZNAGD/ZI9BR/ZI9BW9/ZNH9k0AYP9kj0FH9kj0Fb39k0f2TQBg/2SPQUf2SPQVvf2TR/ZNAGCukgsOgrwX/gpvZLY/sp+JXZ1ZksJyrD12V9MHScivmf/gq9F/Z37IHiE+lnP/6AKAP5U9U8ZXsN5JIZ5EJY8bjVOX4g6m//AC8ygdjuNMhsf+Elv3Gc4Y1sL4DEkW3H3eOlUkBT07xJrV/IPLnnI9QTV43uvkf6+f8AM13HgXwCLex3YBH0rok8JqR92rSuBwXgrWNYs5R5882B6k1eOtXuo+OYojPL5csuD8xxXax+E0zyma5i+0kab4yiYDA8z/GkB10/heTd/wAfD4/3jTU8Lybv+Phv++jV+2vfteRnOzirNpptzqlwIrVGklPRR1oAzB4UnccTuf8AgRqNvCMydZ3H/AjXoGh/Da/mT/SC8BPqKNd+Gl9Ev7h3m+goA85fwvIDzct/30ajuPDNxJbskV2QW/2jW1qWlXmlTMlzE6FeuajtJ13jpQB9j/8ABB3T7i0/a3062mkZw0MxyTx2r93dP0sRwjaM8V+H3/BCxVuP2xtMHGPs839K/eTSrBDb9ulAGCNNz2qVNMXaOK1zpvJ4p66b8o4oAx101d3SmnTF8zpW4mm/MOKa2m/vOlAGG+mDf0p/9mr6VsPpvzdKd/ZvtQBi/wBmr6Uf2avpW1/ZvtR/ZvtQBi/2avpR/Zq+lbX9m+1B03jpQBy3iWwV9AulAyfLNfmZ+007eHPipeOQULzHGe9fqVrGn5sLoeiV+Vf7euofZfi5NHn7s7D+dAD9C8TrNp6EyAnHNFef+FdYH9n9c9KKAPbPDHjCC58fafHlTukwRX6n+H9k/wAL9AK4/wCPNcV/Pv8ABP8Aa3m8S/FfSY5AimSbHSv35+HF7/aHwW8Lzj/lrYIx/WswJzDg/wD1qQqRUhOTTSMigBlFP2D3o2D3oAZRT9g96Ng96AGUU/YPejYPegBlFP2D3o2D3oAYOor5i/4K9oP+GP8AxFwP+PKf/wBAFfUCoMivmL/grook/ZI8Qoe9nOP/ABwUWA/lF+HCg+IJgRxu/rXqFppqz7yqjiuI+Ffhv7d4yaFdxDPivf8ARfhHJG7ja+CfQ1ohNnOaFp0i2+Ez9KvnT5wD8pr1Hwt8GyiByjH8K3V+EoI/1R/KrRB4attcqehNaFp4LOoRpcPArOeckV7EnwhVz/qj+VdBpPwoiisI1KMCB6VXKC0PAJvB00l0kKKY2l9O9eueCvBtpo+kLM6hZkX7+OelTeM/A40PX9PlRDgAk5HvWvZWjXkQgUDDjJrNou55d4q8Y6hqOpta2anKNnIOMgGtjwf4huYWVbsEE8c1var4Yi8La8rGMHeASSM9a1NS0NLqyFzHEipjg4xSGZnibwfb+JNPMiopdhknHWvMrzwM9rdSRiPBzxxXsGjyFbWNRyzdRW3ZfD2PVnWZ0568CgD1H/giLo7ad+2no8RTbutZj/6DX7waPafuevavxc/4JPeGW0v9ubRQibV+xzdsf3a/aWwQwRAEnmk2BIUANKBinZX0NJx70mwEpHHGadx70HGO9SBFjJqTA9BRgUuV9DTTATA9BRgegp2V9DRlfQ1XMgG4HoKTaPSn5X0NISMdKOZAZesKPsFzx/BX49/8FQtaXw98X1cnaJJ2z79a/YfWMfYLr/cNfh5/wW/8Uv4d+Jtj5WMvM+c/jS5gOL8MeP8ANkSJTgn1or5g0/4/ahpdqiKkRBHpRRzAdn+zlbxS/GfQgwYN54xiv6YPhVItp8BfCCDPOnJ/Wv5rPgFafZ/j1oygfKtxX9J/w6dR8C/B5B6aan9akDS8/wB6PP8Aeqv2haPtCf3hQBa8/wB6PP8Aeqv2hP7wo+0J/eFAFrz/AHo8/wB6q/aE/vCj7Qn94UAWxcDuacsoaqX2hP7wpjXwU4HSgC+8oSm+f71TW8DdTTvtCf3hQBbWcbhz3r5n/wCCtMRuv2V9djQjL2kwGf8AdFfRpuUAzuHFfN3/AAU8u0uP2ZtXLsAPs8vX/dFVED+Z/wCA/hd9H+KdrBcrvM84UbR9a+79G+GcFxbowjUEDnivkDwBf29t8VdMdCrBLnOR+Nfa3hvxzCsLAkY7c1RMjV0rwVbW1qEMY3fSrieDYNv3BUEXjOE4OQPqasJ4ytyvMi5+tVEkbH4Tt0P3BVDU9S0fQp/KuJ4InBxhnAxVw+L7fP31/OvHPjR8Lbr4h6zNc20u1XbIPOK2TXUDpviTeaRrsMb215akxDB/eCuR065W0iLxyI7K3GDmuW0z9mrVoWVTc5B9jWrD8G/EOlXASK7AUjrsNYyGjs7yx0/xT5cs8sUZRRncwHSsPxz4psILSDS9PO50f5mByMGsTUPhF4huThrndnjhTVRfgfrmnSbo3O4/xbaks1tLjFlcx+dIiqp5JOBXqvhvxbodvZRI19abyvP71a8iuPgz4j1Wz8u4uw6YxjaRXO3X7M+rW8xeKR92ewNAH6A/8ExPEGnzftq6O8Ekcw+yTDKEHH3a/XhLrMAPY1+HX/BHLwRe+Bf2wtJjvZt++2lbp0+7X7cw3KGzX5h0FQ9wLgvFA5zQLxSehql56f3hS+en94VLYF4XAp3misuS8CfdPFM/tA+tTdga/minZHqKxhqByOal/tH/ADmmmBqZHqKMj1FZf9o+360f2j7frVAamR6ijI9ay/7R9v1pV1H5h/jQBLrEQ/s+6/3DX4L/APBep2X4q2IGcefJ/wCzV+7ur3/+gXXPGyvwl/4LvFbj4o6eAQWad8D160AfB2lWwubUFgTiit3wfoT3OnsTGxwRRQB7v8FbAwfGjSXH/PfNf0MfD3XvL+CPhOPd/wAw5K/nw+HGrR6D8RrG7kAKQy5Oe1fuj8L/AIk6frHwQ8LtDOrsbBM4/h60Aeif2yf71H9rf7VcO3iyMHiTNIfFyD+OgDuf7W/2jR/a3+0a4X/hLk/v0f8ACXJ/foA7r+1v9o0f2t/tGuF/4S5P79H/AAlyf36AO6/tb/aNH9rf7Rrhf+EuT+/R/wAJcn9+gDuv7W/2jR/a3+0a4X/hLk/v0f8ACXJ/foA7k6twfmr5q/4Kkar/AMYr6xz/AMu83/oIr1w+L0Azv6V86f8ABT7xdFefsr6wFYZ+zzf+giqiB/PX4Y1Caz1RLqIndG+4Yr1i2+POo2FtCF8x228jPSvJfBULXdirj+KukgtjFndzmqA9Mg/aJ1TyOUkz/vUxv2idT5+SX/vqvPUcggZp1BPKd237ReqYP7uX/vqhP2oNdtlCI8yqOwbpXB4HoKUImOQKd2CR6FB+1N4gJ/10/wD31Tbv9qbxAJB++n/76rz8qvYCkMat1ApFHfr+1N4gJH724/76q1J+1Nr5iA86f/vqvONiDsKaQDQB6VF+1Nr4Q/vp/wDvqov+Go9fkk2C5nVm6DdXnYGKfaxKZwxAyOhoA+8/+CNvxKu/G37V+ny3kzySJDKoDHPpX7Z2+o7dPQ554r8Ev+CMV4NO/a804ltieTLn9K/b+LxTANOT976VD3A7H+1qP7Wrhj4tXP8ArKP+EtX/AJ6VLVwO5/taj+1q4b/hLV/56Uf8Jav/AD0qeUDuRq3NSf2tXBf8Jav/AD0pf+EvX/nqapKwHef2tR/a1cH/AMJev/PU0f8ACXr/AM9TTA7z+1qVdW5FcF/wl6/89TSx+MFDg+ZnmgDttY1UfYLrn+Cvwv8A+C3V99q+N+kp/wBPL/yav2b1fxzD9gufmH3K/Er/AIK7azH4m/aJ0qJCCVunH6GgDw7wRppi0xsA/MQaK7/wd4ZWDR0DIMkDtRS1A4S58fTRSAqEG/qe4+lfXH7N3/BUa0+HnhGHTtZmn2WirGmELcCvha6lYordxVWe6eaFlbG0+lMD9Ql/4LGeEFH+uuf+/NA/4LKeEVP+tuP+/NfleUX1b86b5I9W/OqSA/VP/h8t4R/563H/AH5o/wCHy3hH/nrcf9+a/KzyB6t+dHkD1b86dkB+qX/D5fwiOstx/wB+aQ/8Fm/B4/5a3X/fg1+V+zHQnNALjvRZAfqiP+CzXg9v+Wl1/wB+DR/w+X8InpLcf9+DX5Xbn9f0oMe4ck59qLID9Uv+Hy3hH/nrcf8Afmk/4fL+ER1luP8AvzX5W+QPVvzpdmOhOaLID9T3/wCCzXg9lI8265GP9Qa8m/a2/wCCmvh34xfBy90Kyknae6SRBmIj7wxXwTlwOtPKRpZkKD5p6k9KLAcz4T0xvD+kxwPjenXvWo0+/oKTyivBxmk2H2pgKjndT959qYqYNOoAXefanA5FMooAezYpu8+1JRQBJSbxTKKAHhwTT4pPLbNQjg08NuoA9e/Yz+PUH7Pnxitdeuiwt4kdWKrk5OO1feWkf8FiPDU1uqyzXAC88RGvy0jkCkZFO+3OvQ4FKwH6sf8AD5bwgP8AlrP/AN+aP+Hy/hD/AJ6z/wDfivymMjE9TRvPqfzpNAfqz/w+X8If89Z/+/NH/D5fwh/z1n/781+U28+p/OjefU/nU2A/Vn/h8v4Q/wCes/8A35o/4fL+EP8AnrP/AN+K/KYMSep/On7G9TVJAfqt/wAPl/CH/PWf/vzR/wAPl/CH/PWf/vzX5U7G9TRsb1NOyA/Vb/h8v4Q/56z/APfmkb/gsx4QA/1s/wD34r8qtjeppssbBeposgP1G1H/AILIeFJ4JVWW4IkXH+pNfEH7TPxg0346fFePXrV5ysMxlj3KQDn1rx7R7YPnfzXQadEsdsy4HT5eKLID0nQPii62e1lQbeBxRXGWMaRQDrk9aKLIDDvYSI8HgjrVBk+U/WtfxFJ5d3IvvWQZAwIppAViAKaTinyR81DN92m1YB28UbxUFFICfeKN4qCigCfeKN4qCigCfeKN4qCigCfeKRnGDzUNFADZE3dqjdMdqmpsnagCHB9DRg+hqSigCPB9DRg+hqSigCPB9DRg+hqSigCPB9DRg+hqSigCPB9DTkGM06igAooooAkooooAKKKKAAdRU+8VBRQBPvFG8VBRQBPvFMmYFajooAuaTxW9Y8xCsHTjg/hWpa6gI+KAN1HCIoJA4orPXVYgP3hGe2aKAPZfC/7PJ8W6St9tJWddynFW1/ZUHPyn8q7jwF8TLbwv4OstOcpvtY9hOOTWoPjBaDoV59qpNAeaf8Mpg/wH8qQ/soqeqfpXpo+MFqe6fkKkHxes+5T8hTdgPLf+GT0/55/pR/wyen/PP9K9S/4W7Zf3l/IUf8Ldsv7yfkKgDy1/2U0Qf6r9KYP2XFH/ACw/8dr1b/hb1m/AKGmv8XrVDj92fyoA8r/4ZdX/AJ4D/vmlH7Lq5/1A/wC+a9Rb4xWwHSP8hTf+FyW3pF+lAHmB/ZWVs/ucfhTm/ZURV/1X/jtenD4w2zf88x+VL/wuC2x/yz/SgDy0fsuKP+WH6Uf8Mur/AM8B/wB816mPjBbD/nn+lH/C4bX0j/SgDyz/AIZdX/ngP++abJ+y6p/5YfpXqv8AwuG19I/0pD8X7U9o/wBKAPKP+GW1/wCeJ/Kj/hltf+eJ/KvVv+FvWvpF+lH/AAt619I/yFAHlP8Awy2v/PE/lR/wy2v/ADxP5V6ofjDa56R/pR/wuG19I/0oA8r/AOGW1/54n8qP+GW1/wCeJ/KvVP8AhcNr6R/pR/wuG19I/wBKAPLP+GWkP/LH/wAdo/4ZYiP/ACzx/wABr1Fvi7asP+Wf6Uw/Fi1PdP0oA8x/4ZWi/ufpR/wytF/c/SvTf+Fq2nqn6Uf8LVtPVP0oA8y/4ZWi/ufpQP2Vos/c/SvTf+Fq2nqn6UD4q2ueqfpQB5t/wytF/c/Sj/hlaL+5+lem/wDC1bT1T9KP+Fq2nqn6UAeZf8MrRf3P0o/4ZWi/ufpXpv8AwtW09U/Sj/hatp6p+lAHmX/DK0X9z9KZ/wAMsR/3T+Veof8AC1bT1T9KjPxVtM9U/SgDzL/hliP+6fyo/wCGWI/7p/KvTf8Ahatp6p+lH/C1bT1T9KAPMv8AhliP+6fypD+y7En8H/jtenf8LVtPVP0pG+KloR1T9KAPMk/ZnjiPCH/vmp2/ZtjCE+Xg/wC7XoQ+Kdru6x1M3xStPLPKfpQB80fGj4VyeFNYtYo9wEkZbp70V3/xy8TWviHW7STK/JERwPeigDkpdTuRO5d2DE844oXV5gfvt+ddr+0d4NtfCPxc1rT9NUfYbOcpFt5GK4RLSVzgIxJpoCdtZn7OfzqM63c9pD+dMa0lQ4KMDSNplwo5icfhTkA/+2rn/nofzNH9tXP/AD0P5movsUv/ADzb8qPsE3/PN/yqQLC65c9PMP50HXbkH/WH86hWwmB/1bUj2Uuf9W1AEr69c4/1h/Omf29c/wDPRvzqKSylA/1bUz7HL/cagC0mvXPPzn86d/b1z/z0b86qpaSDPyNS/ZpP7jUAWf7euf8Ano350f29c/8APRvzqt9mk/uNR9mk/uNQBZ/t65/56N+dH9vXP/PRvzqt9mk/uNR9mk/uNQBZ/t65/wCejfnR/b1z/wA9D+dVvs0n9xqPs0n9xqAJ/wC2rn/nofzNH9tXP/PQ/mag+zSf3Go+zSf3GoAn/tq5/wCeh/M0f21c/wDPQ/mag+zSf3Go+zSf3GoAn/tq5/56H8zR/bVz/wA9D+ZqD7NJ/caj7NJ/cagCf+2rn/nofzNH9tXP/PQ/mag+zSf3Go+zSf3GoAn/ALauf+eh/M0f23c/89D+dQfZpP7jUfZpP7jUAWf7euf75/Oj+3rn/no351W+zSf3Go+zSf3GoAs/29c/89G/Oj+3rn/no351W+zSf3Go+zSf3DQBZOu3J/jP503+2rn/AJ6H8zUH2d/7ppTbSBclDigCb+2rn/nofzNH9tXP/PQ/mariB2GQpxS/Z3/umgCf+2rn/nofzNB1q5P/AC0P5mqzqY2wRg0h+XrxU8wFgaxdZ/1h/OnnW7kpjzD+dVAMjihRuPHNNMDN8R2l9q9yjpIMKMcmivR/hn8Px4u064lIBMThefpRRcD9Vda/4Jw+FZLZ5NUtLaa+k5eV05c+tcTqv/BOTwxAzNb2Nvx0wlfc/wARNPW48vCjvmuB1HTHTOOBWoHxjrH/AAT40RCSLOHI/wBiub1X9hWxUECFB/wGvs3U9NkaUjk1nahomU5TNTID4juf2HrVZjthXH+7VO+/YiQbfLh+uFr7LvdBAzhcVmto21iOakD4+b9iVtv+p/8AHaif9iVs/wCp/wDHa+xH0g7eKhfSWz0oA+PZP2JCR/qf/HaZ/wAMRn/nif8Avn/61fYT6S2OlM/slqAPj6T9iQj/AJYn/vmmf8MSH/nkf++a+wZdKIxmm/2UfegD5A/4YkP/ADyP/fNH/DEh/wCeR/75r6//ALKPvR/ZR96APkD/AIYkP/PI/wDfNH/DEh/55H/vmvr/APso+9H9lH3oA+QP+GJD/wA8j/3zR/wxIf8Ankf++a+v/wCyj70DSjmgD5A/4YkP/PI/980f8MSH/nkf++a+w/7HPpR/Y59KAPjz/hiQ/wDPI/8AfNH/AAxIf+eR/wC+a+w/7HPpR/Y59KAPjz/hiQ/88j/3zR/wxIf+eR/75r7D/sc+lH9jn0oA+PP+GJD/AM8j/wB80f8ADEh/55H/AL5r7D/sc+lH9jn0oA+PP+GJD/zyP/fNH/DEh/55H/vmvsP+xz6Uf2OfSgD48/4YkP8AzyP/AHzR/wAMSH/nkf8AvmvsP+xz6Uf2OfSgD48/4YkP/PI/980kn7EPmLjZt99tfYn9jn0o/sb1XNAHw9qn7Dl75n7pnAz2Sua8cfsr3/gjTmuZVeaFQScrgV99X2kYjY4xxXmHx60vf4AnyMja1AHyp4S+DdhrHh+2uTAimVc4xVy7+B9nBESlsr/hXp3w10RP+ELsfkH3K27nQA9s2FxUSA+eNG+DFvryXEn2NT5LEdPSo9C+DVtqwLGzUgOVPHoa9m8N6A2jaXfK2QZJGI+nNZng7S7ey3GW4kXdIcLt4JzWd2B5ufhJpn9tTWf2SNDAAc4+/wC1Xrv4FWlvprXCacu0DIOK9P8AEGgW0splJMUjdWUcmtnRdBaTwjcjc0qrH8hYdaaYHIfDT4Qx6LohKW3ki4IfAHWivcPCmgKvh+13pz5Y4I6UVQH6ReLdNldkAAPrXMah4ZdombHNddqeqm6YHH6Vn3l0WhIGM/SugDhbnwg0z8jFUtQ8GsE6cV2j72OePyqlfu+zjGR7UWA8/uvBMjAkDg1mTeCZAeEr0YXQ8rBAz9KrSsCeg/KlZAeeTeC5dv3BVZvBspP3a9GmbK8AflVUpk9F/KiyA4E+C5D/AA01vBkgP3BXoHl+y/lTHT5ug/KoA8/k8Gy8fKKY3g2UD7or0B06cD8qYyfL0H5UAef/APCIzf3BR/wiM39wV3vl+y/lR5fsv5UAcF/wiM39wUf8IjN/cFd75fsv5UeX7L+VAHBf8IjN/cFA8IzZ+4K73y/Zfyo8v2X8qAOH/wCEQl/uil/4RCX+6K7ry/YflS+X7L+VAHCf8IhL/dFH/CIS/wB0V3fl+y/lR5fsv5UAcJ/wiEv9ynf8IbL/AHRXchOei/lTvwH5UAcJ/wAIbJ/cFH/CGyf3BXd/gPyo/AflQBwn/CGyf3BR/wAIbJ/cFd3+A/Kj8B+VAHCf8IbJ/cFH/CGyf3BXe+X7L+VHl+y/lQBwX/CGyf3BR/whsn90V3vl+y/lTZP3YyQPyoA84vfBUsikbeDXl/7SHg06b8P59oz8jda+h767AjbC849K8b/afu3b4ez8YyrdqAPAPhfpIPgaw3Lz5fauiGkqyEY4NR/CWNZvA2n5HJjrp5NN2EfKTmpkByo8MRLIWCA56jHFLB4Zght/LFtDjduztGa29X1C00OMvdSxwIBnc7BRXJ3fx38MWdz5bahakg4yJlxWIGzb+FIGGWjRvqK17DQ4iqRiJAq9gODWX4b+IuieJ3KWepWUrgfdWZSa7bQrMSIHAJA6ntV2AlsdID26jYqhRgYFFdDpkKNCcUUwPsCUZAqCVc9RVlxgCo5F3CugCgyDJqrcQhgRjk1oPb4PWoZbbYQc0AY5sCD6VDLZYJ4rcMAJ5qKWBQDxQBgyWeO1Qmxyfu1uSRKT0FQ+WvoKAMn7Bn+Gmvp53fdNbixqBwKa8Y3HiswMGTTicfKajk09gvQ1uToARxUbKNpoAw/sTf3TR9ib+6a2dgo2CgDG+xN/dNH2Jv7prZ2CjYKAMb7E3900CxOfu1s7BRsFAGULHil+w/StTy19BR5a+goAy/sP0o+w/StTy19BR5a+goAy/sP0o+w/StTy19BR5a+goAy/sP0o+w/StTy19BR5a+goAy/sP0oFga1PLX0FAQDtQBn/AGIelL9iHoK0/LX0FHlr6CgDM+xD0FOTTlkGCK0fLX0FGwDtQBi3OiRswBxgmvIf2w9BjsvhzMUAIKt0+le33SjFeQ/tgqP+FaH6N/KgDwP4JaRv8B6axU5Mddb4meHw/pD3Eo2qgznsKzvgrHt8B6bx/wAs63PEehf8Jr4l07QsbxfDJj/vYNRLcDyLwz+y143/AGu9be5luzpnhuGQxNbzRnM2DwwI7YBr2Sy/4I2/DZtN2XWnCa6ZPmkEhALY+nrX1n4C8M2vg7wlaWNtEsOyNdyj1ArUkk8pc1kB+XP7T/8AwSj1/wCCWjtrvw41BLCS1zI8QVnaRR0A6Vl/sb/tR6l4qjuvDXiQSW+t6SFin875TO3HQfjX6sXMEGvWD286q6SLgg1+V3/BQb4QRfs8/tYeHNe0iIW1prN60l8yDAAAPX8hWgH0xoV7FLalgQuTzmiuP8DeIl1XQ47gEOkoDKfUUUAffO3PakeM+lSL1NKRkV0AVTCfSjyMg5AqxsFN2k9jQBSe3yPSmm2ww4yO9XWj4ppj9qAKb2ik8gCoDbKG6CtFo6YYM9qAKXkr/dFNaBSfuirctmU6VCUKnGKizAryWynHyio3tl2/dFWZBjFMb7poswK32Rf7go+yL/cFWFXIpFXJ5zRZgQfZF/uCj7Iv9wVZ2D3o2D3oswK32Rf7go+yL/cFWdg96Ng96LMCt9kX+4KPsi/3BVnYPejYPeizArfZF/uCj7Iv9wVZ2D3o2D3oswKwtVB+6Kk+yL/cFTLECKVUye9FmBB9kX+4KPsi/wBwVZ8r60eV9aLMCt9kX+4KPsq/3BVnyvrR5X1oswKvkJ/dFL5Cf3RVn7GaX7GfajlYFXyE/uik8hP7oq39jPtSGzOKOVgZd3CoA+Uda8h/a/gQ/DucbRwrY9uK9ourQHH1ryH9ryzz8PZ+eNjfyosB4v8AAWBJPAOn5UHbHzXZ/s8eGpPGvx+tL1CWi0uUxkdhnFcv8ArLy/h3bN6xDFem/sDadK/jrxFK4+ZL35M+mBWcgPfPFqJZ3aqzmFQvUVnxWUt7p73McrPEucnPTFdJ4m0SHXS5mLrIvyjb0rn9b0JNC8Fzwwyy4YNyTzzWQHO33itbSGH7PJ5jFsGvlr/gsD4IGsfs3TeJViAutMtXmDAcqcn/ABr6h+EPw3tZtKguJZp5X3E4Y5FeY/8ABWnQ4Lb9jHxaxGAlg20dutaAfI/7KviiTX/gxo0rsS4t0BP50VlfsexbPgzpx5AMKY/I0UAfrLBESTUnkmnRx7XOAakwfQ10AQmEgUzaB2FWNp9KTyR6GgCv5Pm8DjFNeDyuvOatLHt6A0ydN2OKAKzQ+ZSfZqnEZHajYaAK7JgVXltyTnitAxk9qa8PHSgDKkgLHjjFNNqSK0mg56Unk/SgDMFoc96d9lI9K0fJ+lHke1AGf9lb2o+yt7VoeR7UeR7UAZ/2Vvaj7K3tWh5HtR5HtQBn/ZW9qPsre1aHke1Hke1AGf8AZW9qPsre1aHke1Hke1AGeLZs9qk8r6Vc8j2o8n6UAU/K+lHlfSrnk/SjyfpQBT8r6UeV9KueT9KPJ+lAFTYfajYfarRh4pjRe1AEGw+1IYyRUrJjoKTaaAM+6jIYV5F+12h/4V3cf7rfyr2G8QhhxXkH7XZH/CvLj/db+VTIDyT4CoZfh7p6j/nmM16b+y/ef8IX8Y49OYjOrymRce2BXDfs36cJ/h1p7EZzGK6h8eC/idpPiBnEcWnghieOprKQH1nrdvCoJVDvPftXCeNtUzpL2qwys7Z5C8c12+kakPEWj20wGVnjEm7tyKkOlws4DRbznqKyA4P4UadLZ6NFDIjKyEk5FfPn/BZfxda2n7KGt6QGxd6jZPHGM9TmvsK/0+PTYdyKFX1r8wv+CtnxGHjj4z+E/DVtKJ4PtLxXcanOBhutaAcZ+ypocml/BbRo5CN/2ZM4/Giu0+HehLovhuG2hiKxwqFA9KKAP0r27SaKkZeTxRgegroAjp3l+9OwPSl2mgBnl+9Nkj6c1LsNNkQ8UAReX70eX70/YaNhoAZ5fvTXQE4POKl2GkK89OaAK7w9cVE0WD6VcdCO1TaXaC4u1UgHIoE3YzBHk9am8j3ro/7FT+4KX+x1/uD8qBcxzfke9Hke9dJ/Y6/3B+VH9jr/AHB+VAcxzfke9Hke9dJ/Y6/3B+VH9jr/AHB+VAcxzfke9Hke9dJ/Y6/3B+VH9jr/AHB+VAcxzfke9Hk84zzXSJo6GZQUH5VmavYiC7ACgDFAcxneR7037L71a8r2pnl+woDmIPsvvR9l96n8v2FHl+woDmIPsvvQbXA61P5fsKTy/agOYq+X70hhyetWtgo2CgOYqiAUeSKtbBSOg29KA5jMu4ARXi/7XlqF+Hs/P8Dfyr2u/wC1eNfteoT8PZ+P4G/lUyGnc4L9mK3B+Gmm+0QruPEng6PxZodzayIGV+57Vyf7K8efh1pgI/5ZivWprPdEwQbQeuKybuM87+GX7U1z8E746N4ukaHTg2IbudsKijhVFe32P7U/gi/0xbmHXrMqRk4Jrx7x78PtO8TwldStIbpR08xc4ryzxZ8AEu8iylktYh0WMYFZAek/tVf8FLfDHgjw1cadol3b6jqrKUijjfDbu1fD3wv8H6r8Z/iJfeLvEayJc3UomijlGTAfavb4f2atMiuhPeWkVzcKciSRctmur0HwHFYgJFCsa9OBVJ3Ay9J8K/ZbRVC5GOvrRXo+i+GylsQyZ9KKoD6vkCnp3puwe9R2TNJGM1ZUdBXQBFsFLU3lnFNI4oAjpCu6nFCKTGKAE2D3o2D3p2w05VwKAI9g96jdMNU2D6GkEJZqAIiue9X/AA9GF1JCwwuKh+zn1FW7eIpjBGaDO5vgx+1LmP2rHWRgPvCkNyw70AbOY/aopZo09KyTesDUck7v60Aa32yP/Io+2R/5FY2+SlDP60AbH2yP/Io+2R/5FZClmPU0HcD99R9TQBsR3cZlWsbxDcJJcYGM4pQHRg29cDrzWbdM01+GyCo4oASk2D3qWmFSKAG7B70bB70tNd8UALsHvSbBSB/Wng5FAEWwe9Gwe9OKEDtUZcj1oAdsHvTZEwhpPNPv+VOiJkbHP5UMDNvV6Zrx39rt1/4V/P8A7jfyr2LW2MCGvAf2vNSYfD+4H+y38qyk2VFGV+yvsPw803MkY/djqwr2GKREjI8yI5/2hXwB8NPi9rnh2wiigmUQKAEGOgrvLb47+IrhOJ1GfasWyj66u7KGRSS8Rz/tCsy702JlIzFg+4r5rs/i14lnA/0hOR6VbX4g+JpuftEePpSA9uuvCVtNkl1/AiqyeGrezbKup+pFePDx54hYYMyZ+lWI/GOrzIN8mW78UAexxWDuv7oxEDrlhRXlWneLNZSNtkigZ7iii4H3ELIQQpgdRUiwKAOOasSruRaYEwa7AGrHgcDimm1HpUjS7KY92E6VPMBLFYq6gnAol09SOMZqEaljvR/aWe9RzANaxI9KkjsVxzzTTfZoF9yKOYCxFp6uORmtGy8IpeRq4dR7d6o29x0x0rRsL827gg8UcwFgeBlLAblyfarSeAwpAJAJFW7PUEkZHyMisfxr41mslIhY+Z2waOYhqxfPgdB1Zahk8Eov8aiuGufiTqg/ik/Oqlx8StUx96T86OYR2d3oiW05TIOKjNgg/iWuBm+IN67kuzlj1yarz+P7r+8350cwHov2OP8AvLUUluiDgivOf+E+uvVvzqOXx7eEYDPg+9PmA9BkliX+MVkXupRJcsNhb3z1ripPFd2VP36z7jxTdluC4pcwHc6j4nisIuIXOR61jJ43jlutqxMp9Sa5DUPE9y67XZh6ZqLRr4z6goJzkGnzAd8nilnYDBrUsNQ+1r0IrlrIZkFbWmT7JQCcUcwG15e8Un2bPWiOdeKl+0D1o5gGNZlRmmGFhVl7hSnWo/tA9qOYCJYSetOW1DHmj7QvtR9pHr+tHMA42ij0p0NoC3GM1BJd4B5psWoiF9xNJyAy/ElqzcYI5rwn9rzRwfh1cN22N/KvbfFPiFfLPIrxj9py+/tL4X3Az/A38qhvuVE+KfCGno9nEB6V22laGXUYXIrm/A+nHyIhmvUvDelYhHNZlEWk+H2+X5D0rcstCdR9w1taRpfTntW5ZaXhfWgDk49Dck/uz+VWbfQ2H/LM/lXXRaYCfu4q1b6YPSmkBzOnaP5cbZQjn0orrk0wY+7RT5QPY9U+Oljpl0y+ajc9CelVJv2hLGVCPMiX3Br5k+JPha4nuzMLm5Ukk8OQK8z8QpqNmrKl1c8f7ZrYD7gPx4sGHM8f50n/AAvLTj1uI/zr8+r7WdWt8gXVxz/tmss6tqxJ/wBNu/8Av6aXMB+jP/C8NN/5+I/zp8fxv005/wBIj/Ovzem13VYut9d/9/DUa+KdUXj7fdf9/TUAfpJJ8cNNU/8AHxH+dQSfHHTh0uU/Ovzhk8Varn/j+u/+/hqFvFOqMf8Aj+u/+/hoA/Se3+O2noP+PpPzq1F+0FpyD/j6T/vqvzPXxVqaj/j+u/8Av4ahk8S6uz5F9d/9/TQB+ny/tFackfF4g/4FVXUPj3pl7HhrlC3rmvzM/wCEn1fbj7dd/wDf009fE+qnA+3Xf/f01DYH6PP8ZtLP/LxGfxqP/hcelPkG4j/MV+ccnibVgeL67/7+mom8R6sB/wAf13/39NILH6NN8UtHkb/j5j/MVHL8RNIkzi6T8xX5yHX9XJ/5CF5/39NOXxFq6f8AL/ef9/TVXA/RX/hPtJ/5+k/MUDx9pJP/AB9J+Yr87P8AhJ9Y/wCf67/7+mlHijWM/wDH9d/9/TTTA/RZ/HmlbD/pKfmKoS+PNKLj/SU/MV+fZ8WauRj7fd/9/TTP+Eg1NuTqF7n/AK6mmB+gr+N9Ik+9cRnHuP8AGpbXxro8UgZZ4wfUEV+era/qnbULv8ZTSr4j1Zf+X+7/AO/pqGwsfo/bfEHS0yftScDPUUy3+MWmLcf8fEf51+dC+MNYUf8AH/df9/TTB4n1YSbvt11n/rqaQWP0rHxt0uMc3Ef50v8AwvHS/wDn4i/P/wCvX5pyeKdXkP8Ax/3Q/wC2ppP+El1b/n/u/wDv6aq4H6WP8ctL2/8AHzH+dR/8Lx0v/n6j/OvzWPiTViP+P+7/AO/ppP8AhItW/wCf+7/7+mmmB+lX/C8NL/5+Y/zo/wCF4aX/AM/Mf51+av8AwkWrf8/93/39NH/CRat/z/3f/f00xWP0hvPjVp8zfLdIMe45qBvjHYqMtdLj/eFfnN/wkmrf8/11/wB/TSnxLqrrg310B/11NAz7/wDFXxW0/V7NlgnQSY4wepryj4keJTfeDZ7e4nxlWGM5r5TtNf1SxkLLfXbfWU1Lf+MdVvYTHJPKynjlyamQHo3hSytrGKM7wV9TXo3h3VbARANIi4r5jjvL1YwBNIB/vGnJeahnIuZxj0c1IH2Tpeq6aVGZ1UVuafqulLjN0v6V8SDWtUaPYLu4A9pDT4ta1aMY+23X/fw0AfdK67o4H/HylaFtrelmFSskRGOuRXwQNX1Mk5vrz/v4asRa5qqgY1C9wP8Apqa0A+8W1XS5eWnRPYEUV8MQa7qpU/6feH/tqaKAPt/xn4QW6gUgDpXlPizwJkvwtfQWp2DPCQ6kHHeuE1/w959wQUJB707sDwTV/ApORtFc9d+Fhatgp+le8ar4RXd9yuZ1jwgu4/KKQHjt74VEwO0AVj3HhGRHJxXrN/4V2kkCsyXQGGQVJoA8tl0Qq2MHiojoLHtXod/4Ww3CEGoP+EbIH3f0oA4NdBbPIqQaJgdK7Y6Bj+AflSHRAD9z9KGBxTaMB/Caa2kAD7prs5dFBx8v6UxtE4+7WYHFvpBJ4FRtpRI6V2h0Tj7tRf2L/s0Acd/ZB9KP7IPpXY/2MP7v6Uf2OP7p/KgDjv7IPpR/ZB9K7H+xx/dP5Uf2OP7p/KriBx39kH0o/sg+ldj/AGOP7p/Kj+xx/dP5U2Bx39ksO1L/AGS3oa7D+xx/dP5Uf2N/s1mBx/8AZLHsaX+xn9DXXjRRn7tS/wBif7NAHGf2K/oaP7Ff0Ndp/Yn+yKP7E/2RQBxf9iv6Gj+xX9DXaf2J/sij+xP9kVUQOL/sV/Q0f2K/oa7T+xP9kUf2J/siqA4v+xX9DR/Yr+hrtP7E/wBkUf2J/sigDixohzyKkGjjutdh/Yn+yKP7E/2RUyA5NdIXH3cU9NIXH3a6waHx90VLFofH3KkDko9IXd93NTDQw38NdUmh8/cqaPROPuGgDko/DxJ4WrMPhlm5wK6620P5jhKtxaH0+Q1oByEHhk7TwKK7iDQC6n5CaKAPtHV7Hz2bFczqOk/OQRXdSwYd8gViapCplPFAHBaro4yeP0rmdZ0cc8V6TqWmiQZxWNfaKHyNuaAPLbzRsg8ZzWfLogU/dr0XUfDQ52ismfw8ytjbmgDg7zQwT0qnJofP3TXcaloGEJbKAdSK8t+JXxdk8P64umaRaxX94UzsY4oA05dDGPu1A2iDP3f0rh3+LHijw9fJJr2iw2VnIQA6sTXqHh/UYPFOjQ3lrh4Jx8r+tAGJJoYPb9KifQ8D7pqj421a5Tx5pFhak+U7FZiD0rrX8uzAMpAVFOcmpaA53+w/9k1GdD5+6axvCvxQ/wCEs+KEmkWyI8CRMxcHnIrvTpMufuijlA5v+w/9k0f2H/smuk/smX+6KP7Jl/uiqA5v+w/9k0f2H/smuk/smX+6KP7Jl/u0Ac1/Yo/umj+xR/dNdJ/ZTeho/so+9IDm/wCxR/dNH9jr6Gul/so+9H9lH3pNNgc0NHXPSpP7FH9010P9lmj+zD/kUuVgc9/Yo/umj+xR/dNdD/Zh/wAij+zD/kVYHPf2KP7po/sUf3TXQ/2Yf8ij+yyf/wBVAHPf2KP7po/sUf3TW9qtp/Z+mySEf6sEmvPfC/x60nUPFU2lySoLiJgijH3jQB0n9ij+6aP7FH9011EVsl3CsgUAMMjFNubBYYHkx9xS35CgDmhooz900/8AsUD+E1Q8DfEyDxv4im06NEVod2SOvGf8K7L+y29KiQGCuiKV6Yp8eiKB0roE0s7R2p6aUcVIGAmiru6VNFoygdK3I9LIb1qxFpZIGBQBjW2ijJ+WrUWjLxxWxb6WcnirUWl4I4rUDO07Rl8tuO9FdBYaYdjYHeigD6MuAfNfjqazNQsS/wAw7VsS/wCuf61FNDgY45oA5maDPBFUbm129q6G80/eSVxVOXTzLnGOKAOau7MMOlZs9kNxyorqLvTCucDpWdNYk5yKAOZ1XTUmtZARyVIHHtXi/wAP/g5e2Xi661G/iikcyOI8ncdpJxX0FcaeG4PTvXOeK9R03wNayXNzMiShSQpcc8elAHmPxt0GCPwRcm4iiDFGCZA647Vj/s4WTw/CSwWQH5VOCayPEOp69+0Lry20EEttpNvJvzJGU3YPPPevVZfC8XgL4XtFHhUt4iR6jpQB5P4G0aXxL8UtVlYFk0+4xn04FbXxW+Edz4tdTbz3EKhCDscrW98A/Clyov8AUH2eXqLCReOe3+Feh3WlSwxMV2Yx3FAHyX8B/h4/gn49PaO8kga2dizHJzX0T/Yo964PwnorXH7SLFtv/Ho54+levS6X5PUGgDnG0XnjNRvpLL0rpBYKR0NRy2A54oA53+zH9BSHTHx0rf8AsA9DSGwAHSgDn/7Nf0o/s1/QVtmzGelH2MelAGJ/Zr+go/s1/QVt/Yx6UfYx6UAYZ01sdKZ9gPpW/wDYx6VH9jHpQBifYD6Cj7AfQVt/Yx6UfYx6UAYn2A+gpUsSGBx3ra+xj0pVsgWHFAHMeMbNrjw/qGQARCelfI3g/wCHlxr/AIt8QXtoXN1p2HQZ6nI6/nX2p4qsR/wj+ogj/lga8N/ZV06M+O/Faldxk2ggjPcUAdL8EPH8XifTV0+7YpfWoEbLjGTXd6jp/lW06HPMLkfka8g+Kngy7+E/jeDxHYq32FSZLlVGST7V7J4Y8QW3irwY14rKztbnjPIyp60AfP8A+zDp+fi/qWc4xL/Nq+jP7NHoa8I/ZkTb8X9S4GCJP5tX0mLMEdKmQGMumDA4NSR6cAOhrZS1wo4p6W3HSpAxk08Z+7+lSpY44xWulrz0qQWntQBmQ2O0nirMVr04q/DaEk8fpVmK0AxxWgFSztiEOF70VrW1sdpwKKAPZfs5Ez71I54pLiIEdOgq/fLulP1qs8XfNAGVLF1471A8WM8VpTQY5zUD224daAM5oFPUVTutPV88cVqSQYOM1FJH8pGaAOb1axW1tJJCQFRSefpXzfY28P7QvjuaS9nWKwsZGi8tz95kPX9K+o9e0r+0tLlh3bd4IzXgmnfseapo97dXFhrkkCTytIUVO5JPpQB3lhBo+gaPHZ2zwIqcDB6VxXxtuyvhv7JDMrG7BjUj+Kmyfsz675+T4im/75/+tWd4x+HWqWmreHNOM0l39kuf3suPvDB60Adl8MtDbS/AOlw+WwkSEBzjqa2L2zlNq+I26elb1jpbabaJEeAowKfNH+6Iz14oYHzv4NgeP9pQqykH7I3X6V7PJa+aMFax9N+D40v4knxAbjzsxGPbjpmuvFsD/DUcwGE2nBD0xUT6fuzW/NZBu2KrNY/McA1PMBi/2afakOnH2rb+wH0NMewOehpp3AwzYGj7D9K2JLEgdDTfsR9DV3AyfsP0o+w/Stb7EfQ0fYj6GocgMg2PFR/Yv84raNkcdKj+wH0pcwGT9i/zij7F/nFa32D2o+wf7NUpAZP2L/OKPseOvStb7B/s0jWA2nI471SYHO+JrNJPDuospBAgPNeHfsn6eJviD4oKfMF25/MV9DeIdFWbwtdJAP8AXRleK8v/AGbPhDqPgXxR4hvbhJFgvtpTIwDyKYHc+JfA0PinRprO5g8yGYcj1rwfSrm6+D3ii70i8cx2FwkkiSNwiccD9a+oLWG4difm2jpXA/H/AOCMXxK0CSKHAutuQQMnigDxD9kmNL34p37kjDrIQfXk19PCxOO1eH/so/BPVfhv4huJ9VhlkyHRS4xxk4r3/YPSpkBUWxOBUkVjgGrSqCtPRRUgVUssNUgszVlFG6pFHIoArxWpYmrEVieKsRoAelTxqOK0AhhtNqmirYGKKAPWblMyHjvULxn0q7dRDzD1qF48L3oApGHPXFV5rdsnA4rQZPxqF1yCKAMyS3IOSKgkhPPFacsOcdarSxYz1oAoPFgcjimn5BgcD0q6Ikbhs49qjuLWKPkllHvQBnzxLwcDNUZ9KtprgSNCjSKchiORVnUdXs7JSZJlAH+0KyB450x7jb9oT/voUAW7yLzB9KgitBvGRkVcF/YahHmC4Q465YUxEVn+VgR7GkwInhQDG0Y9KrTwqBwACa0/IBqC4sCelTZibM17cMKiNtgmtEWJ9KPsJPalYXMjO+z/AEpj2/Nan2A+gqOSxO7pQHMjMkt8imfZq03sGx0pn2Bv7tNFGf8AZqPs1Xns2TtSfZm9BUtAUjbcVEbTJrR+zN6Uw2zf3aTQFH7JR9kq99mb0FH2ZvQVSAo/ZKDaAir32ZvQUn2cjqOKpMCj9iHl7cfL6UiWHlptUlVPYVoC1Mi/Ltz7mnywwW1uDJIgk7jcKoDNS0MYwGIFH2L5s5OfWl/ti2WbaZYh/wACFaEZtJodyTRk+zCgDPTTlxT4tNUE961LPTftqkxsjAe4pUswODUyAzDpqk9xTo9NAFX2hAYgCnxQAg5qQKCacM1Iunr6VfjgAapBEM0AUV04LThZYrQ8oUeUKaYGc0BTtmirk8ILDg0U+YD1a4Hz1FKBtqeUZc0x0BU1QFNlyajZMCrMkeDxTDHjqKAKjrzTHtTIpx1NTyoA1RXmow6VZSTSsqBBnmgDF17WofDNo9xcOqpHySTivnX44/tw2g1b+yNDjlvLtsLugXeqnpzivIf24P20dR1zxI/g/wAMTu+oXTFAIzuPBwePxruv2Vv2XLT4Y+Gk1fVwl3rN8PNaT+7vGSMH60AWNHs/GPifT/teqXUIhcbgq5UgfnXNT6zZ2viWS0e4nEqEA/vSK9+1LTVXR2RF2rycYr4w+KVxcWvxv1KONiFVxx6darlJ5j6b8A6db3MDsJ5nbtiQkV1dpq95oz7gweFeCOprzH9nS6lnsbjzG3YxivU44mlRtozT5Q5kdT4Z8Qx66gUuschONrHBrbn06S1mCEjnv2rwTxb4yfSdUQW7/ZrmNg289CAelewfCX4hp8StOEc3y3Ma5O480nGwm7m09n5TbSVOPSmmDb6flWhJYGFyuc471FJAAelZtIVyk8XynpUZhyR0q8YAR0pht8dqTQFNkyOgpvlfSra2uOo60v2dfSkaFGSLp0pvlfSrssAyMCmeR7UXQFNoMntSNGCOAKttBzwKRoFA4FAFTyvpR5X0q15I9DTWgK844oArmHd6Vk+IdftfD9q0lwyqo9TitXVL6PSLGS4lIVI1JJP0r5k8X/E67+PvxEfRNGZ00+3+aSccoxU/Mv14NAHoWpfFSXXNQ+zaUkhJOA+3K/nUPiK0v7DTJLi8uV3ou59rYrc8DeB4PCGnKsBVCByDyTWT8ZtIuJvBt7PHk7oyeB0rZInmRwulzw+KLsn7TIPLOP8AWEV2mg+GXC/6Nct5pGBukJFeBfCu+um1a5UufkkxivoDwbbsBG7SBCR3ocQ5kU73xR4m+Fd2Jbp0u7NjyIV3MAa9D+HnxJ0/4ixf6LII5QMtG7fOPwrD8W3I0vSXLxm7RlIIX6V86+J9T1X4deJv+Em0KR7aBX3XNuBlig7frRydxOaPsqWzMEhBxmiOPGelcx8Gvi7YfGLwDY6rDIouJ498sRbLxn3rsIbf5ckHB6Vk9Ck7kSId1PERIqZIAW6VIIcdqQyADJpdh9qmEGD0oMXtUxdwK72xkPBHFFWRGR2oqgPRWXc5pHj+XrT/AONqR/umtAIvL96Y6bxUtGB6CgCjcw7ADnrXg/7d3xlT4N/CO9vS4RxAWXnFe93TZlAx93rX5h/8Fxvi9Np3huTSI5mH2iN0AB6daAOC/wCCcfw/ufjb8Y9W8b6ojXAtLxhCXGdqtg9fwr9CmuV8tYcY2DgfSvij/gk5p0um/DkhZnBuirt7nBr6q+IOtXGg6dLLECWRC2fwqokyOt1HVkXS2GOgNfHPj/RZ/EXx8vkj3QrLKAG/vda5n4jftn+I7TW5rSC0ykLE8Mfm5rzn4R/tea54i/aHFtdaPDiWdVyzH5etbRjqc8pM+y/gzq6+Gdcm0adQJ5nCRMerV67pjTaXrcVvPkCcFhmvC9D+FcvjX4lxasdTns3jl3rGhGK5n40/FXXPAvxNsbSO4nnRVKhmb3FXyEJs9v8Aj/4CGnxRXoXq69uxIrE8K+OJfh7rmmXcTMsOoTrbsQcD3/nVfVvEl7rHhyMXM8swkgEnzHODtzXB7LnU/DFuzSOfsM7Tjn7uD/8AWqJR0LjLsfdeY75BLGQytyCKr3Fttrm/2d9bbxN8I9KvWYyGVMlj1PSutvE3Nx1rjk9TXcpeRg9aRowpqwIW3Hil8gntTYNFV4OOtM8j3q39nY9qT7M3oKiRqU5IOnNN8j3q5JAQRxTfJPoKm4FNoiOM0xrLaPvVeMB9KYYj6VUXcCn9l96HjEagk52/w/3queSfQUeQFUuyjC1QHzD+3v8AtAf8K18FvbQN5UtyVjwGwfm4/rVP9jH4dHwR8KhdzxeZeX9w0/mEYO1zu/rXzx/wUs8aDV/jvpOkb90b7WMeeDh1r698C2klp4L0xI2KoLOIhR0zsFaRZEtzquCK5L4xanc2fg68SPcFeMgYryj9pP48at8M4Y0toi/z4zk18wfF/wDbf8W6LoM8y2ZuUmU4VmOFrZIxnJo918HeE77S9L1LXvMfZbOGaLH+szXunw/ni8Z6JFe2dwHMQCSRr2avnL9mH4sXXxm+AuqW+oxrp892E2shyRx716P4T8F3vwi+Hd5eWmoXFyWfdtJHcGqMlNs93060Go2zW8o5YFRn1rzHxT4RgtPE19pF2F2XKbOe+a4X9n34uax4o1afz5JPkdxy3TBNb/xR1G5uPFVpc+a5YyjLZ61oopohydzlf2fPEp+BX7RN3oFzJ/xLb65EVuh4UAen5V9tlBdIsiDbE4ynpivzg+Pd3Np/xq8PaksjLsuS7EfQ1+h/w1u31T4daLcMS/nWwbJ79a4Ky1O6nsaC2+1s5p5jyOtT+UcdKBFn0qUWQeX70eX71Y8k+gpjREHpUxAi8v3op5jI7UVYHcu21zSFiRSyffNNrQAooooAqakpjhd15bHFfkH/AMFwdPefVY3fdufeR6d6/YV4/MBB6V+av/BbL4P3Oq+CrnVoY9wtY3bgZ9aAPGf+Ce3ijxtD8O0Phi1sbkwbVYTN3x9K+mdc134zapppV9F0Nty45b2+lfH/APwSD+Pi+DvGyeHtTdI7e8l3ZcAYxgdT9a/XmDRYdU0iOSFYiroHU4GCMVUTKTPzyn8D/EyG8Mt54c8O5Dbs7QSefpXI6loyXnxHE+p2djp2p28gZxaqFGfwxX6A+KPCUt8zKyRrz124r4Z+PXhOPSf2gNVWQuf3g+6eO9axbMZXO80fw74g1/WbCfw7NLNcxHJUyHaT71N8Ufhn8ULUx6hdaVo7SxjCl2BJH5V67+wTplul5cOoBYOuPM59PWva/jb4YfxVZEgxKsQ2njFXzMzjdnxhFcfFOXwsznT9IyvycOOmPpWXo+r+NNC8NSf2xZ2MFvc7o0Knksfwr6dh8MQWWmi0b5n3hiQeAK8d/aR1+28QeL9D8Kacu+VLyNnMYyMNj0+lTJ6Gq8j6j/Y8sXj/AGdtBEoxJ5fP6V6FPDhvpWd8LvCR8C+AbHS+n2dMYrVmOWJ71xyXvGqKzJgU2p2GRSbD7VoMhoxUvln2pdh9qzsaFWYHI4zTMe1WpI846U3yvpS5UBXx7VFV0xcdqh8k0JWAgqO+DPYyBepFW/JNSwwgxMG5zTA/Hv8A4KPTzeHv2qtJvHztRCAD0zvXFfUPgjx/8V9c0HTzpmmaPLZ/Zo1VmbnG0e1eLf8ABYj4bXNj4qg12JP3NqBkgc/eB/pXuv8AwSv/AGhtP+Lfwjhtbjab22dothxuwvHT8KpDSTOM+LWlfFzW76OOfQtBliVs5bBP8q5nxB4C8W3fh2S217w/oUVm64MkcalgPyr9AvE/ha3vrASCIbj6jkV5T8XvAM118P8AVGkaDy4oSUxwRyK2UjhxGh8ifDvwpHoui3um28ph+0MNmxsYr1Xwf4C+Idz4aktNMt7W7gc5Bnkzxj6V5z8PdHhPieRZDI5jkwNrV96/AbR44PDkUQCFnjyBxnpV3RlHY+KbfRviT4C1l4U0vR4y57MOpP0qPx23xSkltB/Zull2k+X5u/5V9b/Ev4dLJ4h+0sY1CkHrjvXP6vc2Vq1xeXfltFZJ5ikYxxW8dibPmPiv4zy6q+r6Hb63FDFqW8iVYjkKcHpX6OfBD/kj3hxDnKWajnr1NfnvrUkvxs/ajtmt8PZPefIB2GK/Sbwf4e/4Rnwfplrx+6hC15tbc9GnsXCMjFCpxwKn8omlEIC89aS2LK9Mf7xq15JqN4yGNTHcCtJ2oqZrVpeRjiirA66QHeeKTB9DUsn3zTa0AZg+howfQ0+igBmD6GvHv2w/gnD8XfhZqNk8auJYSrKRndXslV9RgW7tmjYblYcigD+dH4t+FdY/Zt+Ms4iiltvKuGaGTGAqgiv1C/4J+f8ABQ/T/i14Rs9J1i6W0v7dBEGmfG4KMfritn/goL/wTssPjb4Xu72wiS3vgpKyKmTnk1+VeueCPF/7K/jGSO8t7qzMMh8udhjIzxVRJcbn7z6y0GuaaZrQrMCM5Xmvzo/ac8R3ln+0Rq0K6VdXGyQfOg4PWuW/Zb/4Kl6v4E02KLVpJdVj+6Q8mBj869Ruv2tPBHxQ8XS6vcxWenTXJBZS2TVoxkju/wBjj4rT6R4stYJdDvgkzjc3GF+tfYmr2f8AwkloBj7PHIu47+1fIfhn9r7wN8Polngt7O5lXlcNgvXF/Fn/AIKS6t4lZodKil0yHGwOkmR/OquiOQ9a/aG+Men/AAbiuI4bqK7vJQY1WNuRu4/rWB+wb8Db/wCKnj+XxZrCs8KDzIt691JP9a8s+AH7Mfin9qTxbFqWrTXK2Al803DruVsHO38cV+j/AMOfAdl8LfCkOmabGkYjTB2jGTgZqWzRRNbU51uLpiq7R6VTaPcelTJA4X94Tu75pfI96xaKsV/L9qTYKtNB0qAx4PWmMiwfQ0YPoafRWZoQyA8cUmD6GpZO1NoAjwfSmYPoanpvl+9AEWD6GlUEA1J5fvShcUAfOn7d/wCz9B8Yfhhewm0MsuMg49Aa/Lr4FfFbWf2J/jibfbNbQmYqyEY+Uuf6Gv3NurGHUbd4ZyBG4IOelfBv/BRL/gnpb+PLGbXtFRTfq2T5aZYgc4qojTsfSnwG/aW0H46eH4Zbe9gNzcIFaPfllOBVX47wT+HPBeurJE80CQnbtHB5Ffkb4C+KPi/9mPxmsJkutMaBwNuQN/PSvrfwd/wVWi8S+GptJ8Q2IuTOmx5JZP8A69XE5qseY5nwx8Tl0bxXLJBot46iT5iCMV9tfsn/ABHn8T2S3b6fc25jHlgP6Yr5f8G/Gn4eWtx9olksSt2d5jJPy+1eg33/AAUQ8MfDXQTFo2m28+MYMb4/rVszjTsfTfxJsknsprq8cW0QUkl+M8V8SftJ/tE2+ni60XSJMxMCkjK2Q4PauL+NX7ePiH4w5trTUZ7GGQ4EIfIb2ra/ZV/Yu1z41a/FrGsxzW2nAiQiRcrJ6ihVNBunrc9K/wCCc37Oraref8JHeRFYW2ywlh9K+2nBLeXtO2L5V+lUfAPgix+Hnhm20vTokit7ZNihRgYrVkHBrnn7zudMVoQBSB0NBUkHg1JRQUMwfQ1BIp3nirVMbqaiIEcCkA8UVLH3oqwOkk++abTpPvmm1SegBRRRRzIApsgp1IV3VIFTVLNb+zaJ1DK3UGvF/jj+xh4X+M1jINQsLdpGGA5jyRXuYQCkeMOhBA5GKpMD8yfit/wRrQTvJoVzc7S2QqIABXnyf8EqPH1hIY7aymmROjk8n9K/Xaxto7KEpsVwe7DNILZF6Ig/CqUiOU/Krwn/AMEoPHevT41E3llGhwpRs8flX1N8AP8Agljong6CGfWrua/dcFo54wRmvrBYArZHFSNKwTAOKbkHKV/AngrRvhvof2HTraGGMdAq47VI4w5OOpprZY5zS8+1TzBykUgLSEmlwPQU4pk9aPL96TYcrI5ThKhqy8WVqMwgA1IcrK2B6UYHoK8o+OHxR8VeHdTSw8L21lcXZYBhcHAAP4VzMHib48SoG/sjw9g/9NB/hQWe9SKOOKTA9BXhf/CQ/HQ/e0nw/wD9/B/hVTXfHnxq8PWP2m40rQRCrgMQ4Jx+VAH0CigjpSCLPYVifDXWrvxZ4ZiurtY1uMAOE6A45reUFMg0AROhHakVcdae5yfpSUAIyBhggEVR1TQodStmjlRXRhgqRxV+jrVJgfPHx3/YV8L/ABWtpWbT7eK4OSJVjy2a+PPiB/wSK1LTtWuLrTrq8mRjlUwAK/Uh4w64IqvJp0TNyqke4ppkWZ+Rn/DvHx9BdiGKynZF4B3dP0rt/Bf/AATE8X6ndxnVBdW1qfvMDnH6V+nI0m3Bz5MWf90VNHaoMDauPTFO4cp8t/Bv/gm54c+G8dvd6i32+YMDtmjBFfT2g+H7Pw5YJb2NvHbQqMBUGBVyRBKoDAEClAwKXMUkIqhRxxSSCnUhXdWbYxmB6CjA9BT9g96Ng96gBmB6Co2UbjwKn2D3qNkG404gJGBzxRT40HNFWBoy63ADnd1pn9uweteNr8SjIxxKMD3p3/CxW/56isXNpgexf27B60f27B6144fiKQP9aKaPiYpP+vX86XP3A9l/t2D1o/t2D1rx3/hYrf8APUU0/EjHWYU/aAeyf27B60f27B6143/wsof89x+dH/CyP+mwo9qB7J/bsHrR/bsHrXjf/CyP+mwpw+IjN0lpqqgPYv7dg9aRtdhI6/rXjx+IjL1loHxHx1mH503UQHr/APbcPr+tH9tw+v615APiSp/5br+dL/wsZf8Anuv51PtQPXv7bh9f1o/tuH1/WvIx8Q93SZfzpH+Igj+9Oo/Gq5wPXG1uHHX9aY+swlThhnHrXkv/AAsVZFOJ1P0NIPH5J/1oP41cXcDK+IXiW30P4rfaLm6t4FYoA0jgKeT616Enxj0Igbta0sHvidf8a8a+KngTQvioYzqUXmeU28fPjmuNl/Zo8JSyFhbsM/8ATU0wPpsfGPw6eus6Z/3/AFrn/il8W/D1z4QlSLV9OZ2dcATqc14F/wAMyeEv+eDf9/jTX/Ze8ITMge3bCsG/1p7UAfS3wT163h8HjYSVdyQ2cg5rrTdo38a/nXj+g6/Y+FtKhsbUbbeJAAue4FXB8R8nh/1pNgeom7jA+8Pzo+2x/wB5fzrywfExS5XzVyvUZ6U7/hZC/wDPZfzqedAeo/bY/wC8v50fbY/7y/nXl3/CyF/57L+dH/CyF/57L+dHOgPUftsf95fzpj3se77w/OvMf+FkL/z2X86jf4jqWP74fnTUwPUftsf95fzpUvY8/eH515Z/wsZf+ew/OnJ8RgG/1w/On7QD1T7bH/eX86Ptsf8AeX868u/4WQv/AD2X86Q/EpB/y2X86nnQHqX22P8AvL+dH22P+8v515b/AMLKU/8ALZfzpR8RQVJ84YHvUymgPUftsf8AeX86Ptsf95fzry7/AIWONufOGPrSf8LJX/nsKjnA9S+2x/3l/Oo2vYyx+YfnXmP/AAshT/y2H501viKCeJR+dawdwPUkvYwPvD86K8rb4jheso/OirA+h4P2QdBjY/uoSD/s1L/wyNoH/PGD/vmiirSQAf2RtAIx5MH/AHzWdr37Jfhyw0W5dIIPNijZwdvPSiilyoD4F+N3jW98GfEe/wBPty6xQNhQDx3ri7n4uamc/vJPzoorGUEBUn+MWqQJnfJj1zVKb446sD8ry/nRRXNyICCT4560vR5vzqIftBa5CSPMm/OiinGKAhuf2iddx/rZv++qqT/tE64B/rJh/wACoorZQQFKT9pDXEz+8m/76qJ/2mddjB/ezD/gVFFa8iAz5/2rPEcMhCy3BHruqnqH7WPiV5EBluMH/aooqoxQH6UfsE/Cqw+M/wAIm1LUlRrncgy4yeQa9zi/ZI0MN9yE/wDAaKKGgJ3/AGSdDYH93D/3zUEf7I+hjP7uE/8AAaKKQD/+GSNC/wCecP8A3zTJP2SND3D93D/3zRRQAS/skaHu/wBXD0/u0RfskaHn7kP/AHzRRUuIHy5/wUH8I2/wDsLSfSVUS3TMG2DB4Br5CX9oDWioJebP+9RRUOKAX/hf+s/89J/zo/4X/rP/AD0n/OiilyoA/wCF/wCs/wDPSf8AOo3+PutFv9bMPxooo5UAn/C/db/56zfnTJP2hNajH+smP/AqKKORAV5P2kdZU/6yX86gl/aT1oL/AKyX86KKfIgKcv7UmtRMQZJcj/aqpqP7WmvQR7I5ZwG6/NRRT5EB7r/wT+8b6l8dfjNa6Lqhke0lidyHORkV+ig/ZF8Pw2aFoYCxxztoopxigHD9kvw7/wA8Lf8A75qVf2SvD2B+4g/75ooq4ICC7/ZI0FmGy3hI/wB2iiitAP/Z;points=[[0.25,0,0,0,0],[0.25,1,0,0,0],[0.75,0,0,0,0],[0.75,1,0,0,0]];" vertex="1" parent="1">
          <mxGeometry x="200" y="80" width="63.08" height="160" as="geometry" />
        </mxCell>
      </root>
    </mxGraphModel>
  </diagram>
  <diagram id="NPjyHmdo5kMzXNRDss9a" name="Page-2">
    <mxGraphModel grid="1" page="1" gridSize="10" guides="1" tooltips="1" connect="1" arrows="1" fold="1" pageScale="1" pageWidth="850" pageHeight="1100" math="0" shadow="0">
      <root>
        <mxCell id="0" />
        <mxCell id="1" parent="0" />
      </root>
    </mxGraphModel>
  </diagram>
</mxfile>
